<svg width="60" height="61" viewBox="0 0 60 61" fill="none" xmlns="http://www.w3.org/2000/svg">
<path d="M24 0.167725H4C1.8 0.167725 0 1.96772 0 4.16772V24.1677C0 26.3677 1.8 28.1677 4 28.1677H24C26.2 28.1677 28 26.3677 28 24.1677V4.16772C28 1.96772 26.2 0.167725 24 0.167725ZM24 16.1677H4V12.1677H24V16.1677ZM56 0.167725H36C33.8 0.167725 32 1.96772 32 4.16772V56.1677C32 58.3677 33.8 60.1677 36 60.1677H56C58.2 60.1677 60 58.3677 60 56.1677V4.16772C60 1.96772 58.2 0.167725 56 0.167725ZM56 36.1677H36V32.1677H56V36.1677ZM56 24.1677H36V20.1677H56V24.1677ZM24 32.1677H4C1.8 32.1677 0 33.9677 0 36.1677V56.1677C0 58.3677 1.8 60.1677 4 60.1677H24C26.2 60.1677 28 58.3677 28 56.1677V36.1677C28 33.9677 26.2 32.1677 24 32.1677ZM24 48.1677H16V56.1677H12V48.1677H4V44.1677H12V36.1677H16V44.1677H24V48.1677Z" fill="#6253FF"/>
</svg>
