<svg width="42" height="50" viewBox="0 0 42 50" fill="none" xmlns="http://www.w3.org/2000/svg">
<path d="M34.1132 0.0766865L34.4079 0.109134C35.0721 0.217976 35.6652 0.58144 36.0567 1.11965C36.4483 1.65787 36.6064 2.3268 36.4962 2.97945C35.4038 9.41895 36.7198 16.4974 40.1241 24.0201C43.1066 30.6169 42.2073 37.5581 38.9681 44.1473C38.4814 45.1416 37.9455 46.112 37.3625 47.0551L36.7731 47.9636C36.527 48.3278 36.2677 48.6833 35.9957 49.0294C35.5999 49.533 35.0233 49.8691 34.3837 49.969C33.7441 50.0689 33.0898 49.9251 32.5545 49.5668C32.0192 49.2086 31.6434 48.6631 31.5039 48.0417C31.3644 47.4204 31.4717 46.7701 31.8039 46.2239L31.9868 45.9643C32.9039 44.7089 33.7093 43.3686 34.3927 41.9759C36.3997 37.8925 37.2965 33.7468 36.6258 29.7882C31.7734 30.9588 28.9001 33.0504 27.0912 35.6537C25.0258 38.6238 24.1061 42.6073 23.7759 47.6092C23.744 48.2506 23.4626 48.8556 22.9898 49.2991C22.5171 49.7427 21.889 49.991 21.2353 49.9928C19.8889 49.9928 18.7584 48.932 18.6999 47.6067C18.3697 42.6073 17.45 38.6263 15.3846 35.6512C13.5859 33.0654 10.738 30.9838 5.94147 29.8107C5.2784 33.7617 6.1752 37.9025 8.17712 41.9759C8.72333 43.0865 9.34067 44.1773 10.0419 45.2056L10.583 45.9643C10.9792 46.4879 11.151 47.1432 11.0616 47.7897C10.9722 48.4362 10.6286 49.0226 10.1045 49.4233C9.58037 49.824 8.91738 50.0072 8.2575 49.9335C7.59763 49.8599 6.99334 49.5353 6.57406 49.0294C6.30212 48.6833 6.04282 48.3278 5.79666 47.9636L5.20726 47.0551C4.69916 46.2364 4.14787 45.258 3.60166 44.1473C0.365046 37.5581 -0.539376 30.6169 2.44573 24.0201C5.85001 16.4974 7.166 9.41895 6.07358 2.97945C6.0077 2.65168 6.00947 2.31425 6.07879 1.98717C6.14811 1.66008 6.28356 1.35 6.47712 1.07529C6.67068 0.800592 6.91841 0.566865 7.20562 0.387967C7.49282 0.209069 7.81367 0.0886423 8.14913 0.0338249C8.48459 -0.0209924 8.82783 -0.00908433 9.15852 0.0688431C9.48921 0.14677 9.80061 0.289131 10.0743 0.487486C10.3479 0.685841 10.5782 0.936153 10.7516 1.22358C10.9249 1.51101 11.0378 1.82971 11.0835 2.16079C12.308 9.37402 10.9818 17.064 7.52675 25.0584C13.1083 26.4936 17.0029 29.1318 19.5815 32.8383C20.2217 33.7618 20.7704 34.7352 21.2379 35.751C21.7053 34.7352 22.2541 33.7618 22.8943 32.8383C25.4831 29.1118 29.4082 26.4662 35.0329 25.036C31.5879 17.049 30.2618 9.36654 31.4863 2.16079C31.5877 1.55757 31.9109 1.01189 32.3947 0.627269C32.8784 0.24265 33.489 0.0458458 34.1107 0.0741907L34.1132 0.0766865ZM21.2379 15.0498C21.9117 15.0498 22.5579 15.3127 23.0343 15.7808C23.5107 16.2489 23.7784 16.8837 23.7784 17.5457C23.7784 18.2077 23.5107 18.8425 23.0343 19.3106C22.5579 19.7787 21.9117 20.0416 21.2379 20.0416C20.5641 20.0416 19.9179 19.7787 19.4415 19.3106C18.965 18.8425 18.6974 18.2077 18.6974 17.5457C18.6974 16.8837 18.965 16.2489 19.4415 15.7808C19.9179 15.3127 20.5641 15.0498 21.2379 15.0498Z" fill="#6253FF"/>
</svg>
