<svg width="61" height="60" viewBox="0 0 61 60" fill="none" xmlns="http://www.w3.org/2000/svg">
<path d="M47.5877 2.33575C46.7759 1.5241 45.7984 0.897236 44.722 0.49798C43.6457 0.0987245 42.4958 -0.0635156 41.351 0.0223418C40.2062 0.108199 39.0934 0.440132 38.0887 0.995465C37.0839 1.5508 36.2109 2.31645 35.5292 3.24012C33.4997 2.877 31.4073 3.17103 29.5565 4.07943C27.7058 4.98783 26.1932 6.46317 25.239 8.29072C24.2849 10.1183 23.9389 12.2026 24.2515 14.2404C24.564 16.2782 25.5188 18.1631 26.9768 19.6207L31.0397 23.6834L27.1855 27.542L32.6722 33.0331L36.5309 29.1745L40.5984 33.2418C42.0558 34.6991 43.9402 35.6535 45.9775 35.966C48.0147 36.2786 50.0985 35.933 51.9258 34.9795C53.7531 34.0261 55.2285 32.5145 56.1374 30.6647C57.0463 28.8149 57.3413 26.7234 56.9795 24.6944C57.9032 24.0127 58.6689 23.1397 59.2242 22.135C59.7796 21.1302 60.1115 20.0175 60.1974 18.8727C60.2832 17.728 60.121 16.5782 59.7217 15.5018C59.3225 14.4255 58.6956 13.4481 57.8839 12.6362L55.4768 10.2292L57.5824 8.12368C58.2889 7.39167 58.6797 6.41162 58.6708 5.3944C58.662 4.37717 58.2542 3.40406 57.5352 2.68444C56.8161 1.96482 55.8433 1.55621 54.8261 1.54651C53.8088 1.5368 52.8284 1.9268 52.0958 2.63257L49.9902 4.73811L47.5831 2.33575H47.5877ZM48.8956 19.6485C48.6802 19.8645 48.4243 20.0358 48.1426 20.1527C47.8609 20.2696 47.5588 20.3298 47.2538 20.3298C46.9488 20.3298 46.6468 20.2696 46.365 20.1527C46.0833 20.0358 45.8274 19.8645 45.612 19.6485L40.4964 14.5331C40.0739 14.0957 39.8402 13.51 39.8455 12.902C39.8508 12.294 40.0947 11.7124 40.5246 11.2824C40.9546 10.8525 41.5362 10.6086 42.1442 10.6033C42.7522 10.598 43.338 10.8318 43.7754 11.2542L48.8956 16.3696C49.3304 16.8045 49.5746 17.3942 49.5746 18.0091C49.5746 18.624 49.3304 19.2137 48.8956 19.6485ZM6.14797 26.7628C7.04722 25.8635 8.11481 25.1502 9.28977 24.6635C10.4647 24.1768 11.7241 23.9263 12.9959 23.9263C14.2676 23.9263 15.527 24.1768 16.7019 24.6635C17.8769 25.1502 18.9445 25.8635 19.8437 26.7628L33.4653 40.3839C34.9206 41.8417 35.8732 43.7255 36.1847 45.7617C36.4961 47.7979 36.1501 49.8803 35.1969 51.7064C34.2438 53.5324 32.7331 55.007 30.8846 55.9158C29.036 56.8246 26.9457 57.1203 24.9176 56.7599C24.2359 57.6836 23.3628 58.4492 22.3581 59.0045C21.3533 59.5599 20.2406 59.8918 19.0957 59.9777C17.9509 60.0635 16.8011 59.9013 15.7247 59.502C14.6484 59.1028 13.6709 58.4759 12.859 57.6642L10.452 55.2619L8.27677 57.4416C7.91621 57.8022 7.48816 58.0882 7.01706 58.2833C6.54596 58.4785 6.04104 58.5789 5.53113 58.5789C5.02122 58.5789 4.5163 58.4785 4.0452 58.2833C3.5741 58.0882 3.14605 57.8022 2.78548 57.4416C2.42492 57.0811 2.13891 56.653 1.94377 56.182C1.74864 55.7109 1.6482 55.206 1.6482 54.6961C1.6482 54.1862 1.74864 53.6813 1.94377 53.2102C2.13891 52.7391 2.42492 52.3111 2.78548 51.9505L4.9653 49.7708L2.55359 47.3684C1.74216 46.5563 1.1156 45.5785 0.716709 44.502C0.317818 43.4255 0.155996 42.2756 0.242298 41.1308C0.328599 39.9861 0.660991 38.8734 1.21677 37.8689C1.77254 36.8643 2.5386 35.9916 3.46262 35.3102C3.18807 33.7742 3.28934 32.1946 3.75776 30.7062C4.22618 29.2178 5.04785 27.8648 6.15261 26.7628H6.14797ZM18.1973 47.0716L13.0817 41.9562C12.6443 41.5337 12.0585 41.3 11.4505 41.3053C10.8425 41.3106 10.2608 41.5545 9.8309 41.9844C9.40094 42.4143 9.15706 42.9959 9.15178 43.6039C9.14649 44.2119 9.38023 44.7977 9.80265 45.2351L14.9183 50.3505C15.3556 50.7729 15.9414 51.0066 16.5494 51.0013C17.1574 50.9961 17.7391 50.7522 18.169 50.3223C18.599 49.8923 18.8429 49.3107 18.8481 48.7027C18.8534 48.0947 18.6197 47.5089 18.1973 47.0716Z" fill="#6253FF"/>
</svg>
