<svg width="51" height="51" viewBox="0 0 51 51" fill="none" xmlns="http://www.w3.org/2000/svg">
<path d="M3.56506 0.702637L0.292969 3.82473V47.598L3.33018 50.7026H47.1883L50.293 47.598V3.81078L47.1883 0.702637H3.56506ZM24.2465 4.31543V8.95845H26.3395V4.31543C29.2813 4.35031 32.2116 4.52822 35.0139 4.8538L33.5837 10.5631L35.6069 11.0747L37.0953 5.12706C40.2581 5.58868 43.1999 6.24566 45.7581 7.09799L40.1767 20.1212C37.1418 19.3654 32.8627 18.9119 28.3744 18.7724C28.8511 19.4119 29.1302 20.2026 29.1302 21.0515C29.1302 23.1561 27.3976 24.8887 25.293 24.8887C23.1883 24.8887 21.4558 23.1561 21.4558 21.0515C21.4558 20.2026 21.7348 19.4119 22.2116 18.7724C17.7116 18.9119 13.4441 19.3654 10.4092 20.1212L4.82785 7.09799C7.38599 6.24566 10.3279 5.58868 13.4906 5.12706L14.979 11.0747L17.0023 10.5631L15.572 4.8538C18.3744 4.52822 21.3046 4.35031 24.2465 4.31543ZM20.6767 6.68636L18.7465 7.50961L23.1767 17.8538C23.7697 17.4701 24.4558 17.2375 25.1999 17.2143L20.6767 6.68636ZM25.293 19.3073C24.3162 19.3073 23.5488 20.0747 23.5488 21.0515C23.5488 22.0282 24.3162 22.7957 25.293 22.7957C26.2697 22.7957 27.0372 22.0282 27.0372 21.0515C27.0372 20.0747 26.2697 19.3073 25.293 19.3073ZM10.4092 37.6794H40.1767V39.7724H10.4092V37.6794ZM10.4092 43.2608H40.1767V45.3538H10.4092V43.2608Z" fill="#6253FF"/>
</svg>
