<svg width="51" height="50" viewBox="0 0 51 50" fill="none" xmlns="http://www.w3.org/2000/svg">
<path d="M45.3336 0H6.44472C3.38916 0 0.88916 2.5 0.88916 5.55556V44.4444C0.88916 47.5 3.38916 50 6.44472 50H45.3336C48.3892 50 50.8892 47.5 50.8892 44.4444V5.55556C50.8892 2.5 48.3892 0 45.3336 0ZM13.1114 41.6667C8.94472 37.5 6.44472 31.3889 6.44472 25C6.44472 18.6111 8.94472 12.5 13.1114 8.33333L17.5558 10.2778C13.9447 13.6111 12.0003 19.1667 12.0003 25C12.0003 30.8333 13.9447 36.3889 17.5558 39.7222L13.1114 41.6667ZM27.8336 33.3333L25.6114 27.7778L21.7225 33.3333H17.5558L23.9447 24.7222L20.3336 16.6667H23.9447L26.1669 22.2222L30.0558 16.6667H34.2225L28.1114 25L31.7225 33.3333H27.8336ZM38.6669 41.6667L34.2225 39.7222C37.8336 36.1111 39.778 30.8333 39.778 25C39.778 19.1667 37.8336 13.6111 34.2225 10.2778L38.6669 8.33333C42.8336 12.5 45.3336 18.6111 45.3336 25C45.3336 31.3889 42.8336 37.5 38.6669 41.6667Z" fill="#6253FF"/>
</svg>
