<svg width="61" height="60" viewBox="0 0 61 60" fill="none" xmlns="http://www.w3.org/2000/svg">
<path d="M39.6917 3.67346C40.223 3.50071 40.6562 3.1567 40.9003 2.71365C41.1445 2.27061 41.1806 1.76301 41.0011 1.29742C40.8216 0.831841 40.4405 0.444499 39.9377 0.21673C39.4349 -0.0110381 38.8496 -0.0615142 38.3047 0.0759007C34.1878 1.25991 31.6201 4.18198 30.1147 7.31276C29.9105 7.73591 29.7231 8.16499 29.5529 8.59923C28.732 7.25282 27.6815 6.02087 26.4366 4.94475C24.7496 3.48298 22.7346 2.33502 20.5154 1.57147C18.2963 0.807908 15.92 0.444886 13.5326 0.504723C12.31 0.533413 11.1464 0.965916 10.2811 1.71335C9.41585 2.46079 8.91453 3.4664 8.88019 4.52352C8.81098 6.58769 9.23085 8.64228 10.114 10.561C10.9971 12.4797 12.3248 14.2219 14.0154 15.6805L14.1559 15.7944C10.469 16.4849 7.13723 18.1833 4.65355 20.6383C2.16988 23.0932 0.6663 26.1744 0.365331 29.4256L0.338996 29.7064C-0.240445 35.9574 1.30005 42.2188 4.77199 47.7246L6.34768 50.2216C6.39157 50.2861 6.43546 50.3507 6.48813 50.4114L10.8772 55.7318C11.872 56.9363 13.1583 57.939 14.6467 58.6701C16.1352 59.4012 17.7899 59.8432 19.4959 59.9653C21.2019 60.0874 22.9182 59.8866 24.5254 59.377C26.1326 58.8674 27.5921 58.0612 28.8023 57.0145C28.9882 56.8537 29.2089 56.7262 29.4517 56.6392C29.6946 56.5522 29.9549 56.5074 30.2178 56.5074C30.4807 56.5074 30.741 56.5522 30.9839 56.6392C31.2268 56.7262 31.4474 56.8537 31.6333 57.0145C32.8436 58.0612 34.303 58.8674 35.9102 59.377C37.5174 59.8866 39.2337 60.0874 40.9397 59.9653C42.6457 59.8432 44.3005 59.4012 45.7889 58.6701C47.2773 57.939 48.5636 56.9363 49.5584 55.7318L53.9475 50.4152C54.0002 50.3532 54.0485 50.2886 54.0923 50.2216L55.6636 47.7246C59.1371 42.2192 60.6791 35.9577 60.101 29.7064L60.0747 29.4256C59.8804 27.3304 59.1849 25.2929 58.0323 23.4422C56.8797 21.5915 55.2952 19.9679 53.379 18.6743C51.4628 17.3808 49.2568 16.4454 46.9007 15.9274C44.5446 15.4094 42.0898 15.3202 39.6917 15.6653L32.4146 16.7127C32.4584 14.1284 32.9851 11.2215 34.1614 8.77C35.3948 6.20845 37.2206 4.3869 39.6917 3.67346ZM16.6489 26.4428C15.9759 26.6275 15.3517 26.9254 14.8124 27.3194C14.2731 27.7134 13.8292 28.1958 13.5063 28.7387C12.6899 30.0594 12.1369 32.2376 12.6504 35.7934C12.7226 36.2932 12.5622 36.7972 12.2046 37.1947C11.8469 37.5921 11.3213 37.8505 10.7434 37.9129C10.1654 37.9753 9.58245 37.8366 9.12274 37.5274C8.66303 37.2182 8.36422 36.7637 8.29205 36.264C7.71269 32.2262 8.25255 29.1865 9.63512 26.9513C11.0396 24.6744 13.1771 23.4449 15.2619 22.8415C15.8143 22.6819 16.4173 22.7187 16.9383 22.9436C17.4594 23.1685 17.8557 23.5631 18.0402 24.0407C18.2248 24.5182 18.1823 25.0396 17.9222 25.4901C17.6621 25.9406 17.2056 26.2833 16.6533 26.4428H16.6489Z" fill="#6253FF"/>
</svg>
