<svg width="666" height="611" viewBox="0 0 666 611" fill="none" xmlns="http://www.w3.org/2000/svg">
<circle cx="575.667" cy="199.213" r="89.9133" transform="rotate(0.267955 575.667 199.213)" fill="#B1A9FF"/>
<g clip-path="url(#clip0_110_1114)">
<path d="M594.831 127.343C594.831 127.343 594.758 130.53 588.958 135.19L587.645 137.556L599.9 144.661C601.004 144.713 602.244 145.006 603.48 145.557C606.685 146.986 608.64 149.6 607.846 151.395C607.053 153.19 603.811 153.487 600.606 152.058C599.905 151.745 599.264 151.376 598.698 150.971C594.497 149.913 575.808 144.857 577.876 139.104C580.204 132.628 582.482 125.056 582.482 125.056L594.831 127.343L594.831 127.343V127.343Z" fill="#FFB6B6"/>
<path d="M584.661 115.661C585.396 113.227 587.164 111.282 589.51 110.325C591.856 109.368 594.472 109.525 596.691 110.751C598.842 111.943 600.356 114.012 600.845 116.43C601.333 118.847 600.743 121.346 599.225 123.286L594.113 129.82L581.212 127.067L584.661 115.661V115.661V115.661Z" fill="#6C63FF"/>
<path d="M611.282 139.843C607.558 138.507 603.655 137.849 599.588 137.809C599.163 137.736 598.758 138.023 598.684 138.449L598.243 141.01C598.169 141.437 598.455 141.844 598.879 141.918C600.466 142.864 602.081 143.438 603.717 143.761L602.021 153.596C600.117 153.224 598.369 153.135 596.88 153.519C596.455 153.445 596.05 153.732 595.976 154.159L595.534 156.72C595.461 157.146 595.747 157.554 596.171 157.628C599.489 158.828 603.524 159.383 607.865 159.661C608.29 159.735 608.695 159.448 608.769 159.021L609.211 156.46C609.284 156.034 608.998 155.626 608.574 155.553C606.899 154.943 605.255 154.389 603.69 153.979L605.408 144.011C607.115 144.179 608.84 144.118 610.573 143.952C610.998 144.026 611.404 143.739 611.477 143.312L611.919 140.751C611.992 140.324 611.706 139.917 611.282 139.843V139.843Z" fill="#2F2E41"/>
<path d="M559.218 224.481L547.789 212.742L556.049 200.89L558.288 201.038C559.477 201.116 560.506 200.214 560.589 199.02L561.01 192.957C561.097 191.7 560.105 190.632 558.851 190.632H537.86C538.03 190.222 538.076 189.764 537.976 189.319L525.453 133.65C525.211 132.575 524.206 131.852 523.115 131.967L518.168 132.49C516.88 132.626 515.998 133.86 516.283 135.129L529.701 195.002C530.003 196.352 531.39 196.983 532.54 196.572C532.476 196.75 532.44 196.931 532.424 197.112L530.645 197.255L500.364 231.104H509.644L533.087 204.859L555.554 231.104H562.881L563.125 226.689L559.218 224.481V224.481ZM537.251 199.652L549.54 200.462L544.726 209.595L537.727 202.406L537.251 199.652V199.652Z" fill="#F2F2F2"/>
<path d="M469.314 231.265C469.314 231.578 469.46 231.83 469.642 231.83H670.283C670.465 231.83 670.611 231.578 670.611 231.265C670.611 230.951 670.465 230.699 670.283 230.699H469.642C469.46 230.699 469.314 230.951 469.314 231.265Z" fill="#3F3D56"/>
<path d="M598.345 96.7611C603.875 96.7611 608.358 92.2587 608.358 86.7046C608.358 81.1505 603.875 76.6481 598.345 76.6481C592.816 76.6481 588.333 81.1505 588.333 86.7046C588.333 92.2587 592.816 96.7611 598.345 96.7611Z" fill="#FFB6B6"/>
<path d="M579.242 214.915V224.972L571.672 225.217L571.987 214.915H579.242Z" fill="#FFB6B6"/>
<path d="M577.025 223.691L576.997 223.732L576.949 223.743C576.767 223.783 572.46 224.721 571.207 222.958C571.108 222.819 571.021 222.761 570.947 222.784C570.128 223.048 569.475 229.332 569.475 231.717C569.475 233.122 572.597 233.484 576.549 233.943C578.396 234.157 580.488 234.399 582.562 234.785C587.07 235.624 590.785 233.549 592.599 232.237C592.92 232.005 593.116 231.644 593.138 231.248C593.159 230.849 593.002 230.467 592.707 230.2C590.316 228.036 582.407 220.944 581.041 220.552C580.943 220.524 580.843 220.511 580.741 220.511C579.155 220.511 577.047 223.657 577.025 223.691V223.691Z" fill="#2F2E41"/>
<path d="M593.407 214.915V224.972L585.836 225.217L586.152 214.915H593.407Z" fill="#FFB6B6"/>
<path d="M596.459 142.925L600.488 145.991L601.221 180.576L594.383 218.349L585.469 218.717L585.225 182.661L573.748 149.793L576.068 142.067L596.459 142.925Z" fill="#2F2E41"/>
<path d="M577.656 148.812L573.748 149.793L570.94 218.349L581.075 217.491L587.79 169.048L577.656 148.812Z" fill="#2F2E41"/>
<path d="M596.681 235.026C594.616 234.642 592.527 234.4 590.685 234.186C586.452 233.696 583.394 233.341 583.394 231.717C583.394 230.486 583.867 222.927 585.036 222.55C585.165 222.509 585.361 222.522 585.569 222.816C586.663 224.354 590.54 223.61 591.013 223.513C591.305 223.082 593.578 219.829 595.272 220.316C596.578 220.691 603.051 226.419 606.792 229.799C607.208 230.175 607.425 230.711 607.389 231.272C607.353 231.827 607.071 232.326 606.616 232.64C605.108 233.68 602.285 235.223 598.811 235.223C598.125 235.223 597.413 235.162 596.681 235.026V235.026Z" fill="#2F2E41"/>
<path d="M587.392 99.2403L589.58 91.8585L599.102 94.2822L598.715 102.292L587.392 99.2403Z" fill="#FFB6B6"/>
<path d="M576.046 142.187L575.939 142.167L577.617 115.584C577.964 110.093 579.944 104.91 583.344 100.597L587.514 95.3054L600.792 102.714L600.843 102.742L603.784 118.497L603.789 118.526L600.606 146.026L600.575 146.132L576.046 142.187V142.187Z" fill="#6C63FF"/>
<path d="M589.666 92.088L590.524 92.2875C590.524 92.2875 592 86.4859 592.974 87.6899C593.948 88.894 596.435 89.2629 596.435 89.2629L597.289 87.3667C597.289 87.3667 601.919 87.1864 602.687 85.0606C602.687 85.0606 612.52 85.5316 609.768 80.2828C607.015 75.034 606.13 76.1552 606.13 76.1552C606.13 76.1552 603.441 74.5522 602.838 72.9456C602.235 71.339 596.303 69.9376 592.806 73.3362C579.994 85.789 589.666 92.088 589.666 92.088V92.088L589.666 92.088Z" fill="#3F3D56"/>
<path d="M612.905 129.585L611.223 129.892L613.148 140.51L614.83 140.203L612.905 129.585Z" fill="#3F3D56"/>
<path d="M608.26 142.027C610.887 140.212 615.248 139.91 619.936 139.892C620.36 139.815 620.768 140.098 620.845 140.524L621.309 143.082C621.386 143.507 621.103 143.917 620.68 143.995C616.508 145.235 612.529 146.11 609.004 146.13C608.58 146.207 608.172 145.924 608.094 145.498L607.631 142.941C607.554 142.515 607.836 142.105 608.26 142.027H608.26Z" fill="#3F3D56"/>
<path d="M605.417 126.342C609.248 124.972 613.138 124.241 617.093 124.207C617.517 124.129 617.925 124.413 618.002 124.839L618.465 127.396C618.543 127.822 618.26 128.232 617.836 128.309C614.228 130.044 610.474 131.252 606.16 130.444C605.736 130.522 605.328 130.238 605.251 129.812L604.788 127.255C604.71 126.829 604.993 126.42 605.417 126.342H605.417V126.342Z" fill="#3F3D56"/>
<path d="M597.363 118.16C597.363 118.16 598.387 121.178 594.539 127.559L594.118 130.235L608.06 132.667C609.114 132.333 610.378 132.179 611.727 132.269C615.226 132.503 617.957 134.281 617.828 136.24C617.698 138.2 614.757 139.6 611.258 139.367C610.493 139.316 609.764 139.191 609.094 139.006C604.787 139.466 585.507 141.183 585.477 135.067C585.442 128.182 584.985 120.285 584.985 120.285L597.363 118.16L597.363 118.16V118.16Z" fill="#FFB6B6"/>
<path d="M583.809 110.711C583.665 108.171 584.658 105.734 586.533 104.024C588.407 102.314 590.917 101.557 593.421 101.94C595.848 102.315 597.979 103.735 599.267 105.835C600.555 107.936 600.857 110.486 600.097 112.832L597.537 120.735L584.482 122.612L583.809 110.711Z" fill="#6C63FF"/>
<path d="M530.464 215.322L530.019 226.105L531.727 226.176L532.172 215.393L530.464 215.322Z" fill="#3F3D56"/>
<path d="M524.919 226.506C527.878 225.315 532.199 225.983 536.776 227C537.207 227.018 537.543 227.385 537.525 227.817L537.418 230.415C537.4 230.847 537.035 231.185 536.604 231.167C532.263 231.456 528.19 231.431 524.746 230.673C524.316 230.655 523.98 230.288 523.998 229.855L524.105 227.258C524.123 226.826 524.488 226.488 524.919 226.506Z" fill="#3F3D56"/>
<path d="M525.577 210.577C529.614 210.086 533.569 210.231 537.434 211.071C537.865 211.089 538.201 211.455 538.183 211.888L538.076 214.485C538.058 214.917 537.693 215.255 537.262 215.237C533.363 216.133 529.436 216.482 525.405 214.743C524.974 214.725 524.638 214.358 524.656 213.926L524.763 211.329C524.781 210.896 525.146 210.559 525.577 210.577Z" fill="#3F3D56"/>
</g>
<g clip-path="url(#clip1_110_1114)">
<path d="M581.18 485.408C580.618 484.734 580.21 483.946 579.985 483.098C579.761 482.25 579.725 481.362 579.88 480.499C580.035 479.635 580.378 478.816 580.883 478.099C581.389 477.383 582.046 476.785 582.808 476.35L578.88 455.386L589.095 459.679L591.259 478.929C591.905 480.257 592.042 481.776 591.643 483.199C591.245 484.621 590.339 485.848 589.096 486.647C587.854 487.445 586.362 487.76 584.903 487.532C583.444 487.304 582.119 486.548 581.18 485.408V485.408Z" fill="#FFB6B6"/>
<path d="M556.909 243.052H108.454V455.92H556.909V243.052Z" fill="#E6E6E6"/>
<path d="M544.086 261.305H121.278V438.908H544.086V261.305Z" fill="white"/>
<path d="M556.717 230.753H108.263V249.811H556.717V230.753Z" fill="#6C63FF"/>
<path d="M122.42 243.1C124.371 243.1 125.951 241.519 125.951 239.568C125.951 237.617 124.371 236.036 122.42 236.036C120.47 236.036 118.889 237.617 118.889 239.568C118.889 241.519 120.47 243.1 122.42 243.1Z" fill="white"/>
<path d="M135.824 243.1C137.774 243.1 139.355 241.519 139.355 239.568C139.355 237.617 137.774 236.036 135.824 236.036C133.873 236.036 132.292 237.617 132.292 239.568C132.292 241.519 133.873 243.1 135.824 243.1Z" fill="white"/>
<path d="M149.227 243.1C151.178 243.1 152.759 241.519 152.759 239.568C152.759 237.617 151.178 236.036 149.227 236.036C147.277 236.036 145.696 237.617 145.696 239.568C145.696 241.519 147.277 243.1 149.227 243.1Z" fill="white"/>
<path d="M146.004 375.57C145.514 375.572 145.045 375.768 144.699 376.115C144.353 376.463 144.158 376.933 144.158 377.424C144.158 377.914 144.353 378.384 144.699 378.732C145.045 379.079 145.514 379.275 146.004 379.277H247.679C248.17 379.275 248.639 379.079 248.985 378.732C249.331 378.384 249.526 377.914 249.526 377.424C249.526 376.933 249.331 376.463 248.985 376.115C248.639 375.768 248.17 375.572 247.679 375.57H146.004Z" fill="#E6E6E6"/>
<path d="M146.004 386.692C145.514 386.694 145.045 386.89 144.699 387.238C144.353 387.585 144.158 388.055 144.158 388.546C144.158 389.036 144.353 389.507 144.699 389.854C145.045 390.202 145.514 390.398 146.004 390.399H197.912C198.402 390.398 198.871 390.202 199.217 389.854C199.563 389.507 199.758 389.036 199.758 388.546C199.758 388.055 199.563 387.585 199.217 387.238C198.871 386.89 198.402 386.694 197.912 386.692H146.004Z" fill="#E6E6E6"/>
<path d="M247.807 407.691H209.185C208.684 407.69 208.205 407.491 207.851 407.137C207.497 406.783 207.298 406.304 207.298 405.803V399.613C207.298 399.113 207.497 398.633 207.851 398.279C208.205 397.925 208.684 397.726 209.185 397.726H247.807C248.308 397.726 248.787 397.925 249.141 398.279C249.495 398.633 249.694 399.113 249.694 399.613V405.803C249.694 406.304 249.495 406.783 249.141 407.137C248.787 407.491 248.308 407.69 247.807 407.691V407.691Z" fill="#6C63FF"/>
<path d="M247.807 343.23H209.185C208.684 343.23 208.205 343.031 207.851 342.677C207.497 342.323 207.298 341.843 207.298 341.343V335.153C207.298 334.652 207.497 334.173 207.851 333.819C208.205 333.465 208.684 333.266 209.185 333.265H247.807C248.308 333.266 248.787 333.465 249.141 333.819C249.495 334.173 249.694 334.652 249.694 335.153V341.343C249.694 341.843 249.495 342.323 249.141 342.677C248.787 343.031 248.308 343.23 247.807 343.23V343.23Z" fill="#6C63FF"/>
<path d="M315.884 292.366C315.243 292.367 314.629 292.623 314.177 293.076C313.724 293.53 313.47 294.144 313.47 294.785C313.47 295.426 313.724 296.04 314.177 296.494C314.629 296.947 315.243 297.203 315.884 297.204H518.099C518.74 297.203 519.354 296.947 519.807 296.494C520.259 296.04 520.513 295.426 520.513 294.785C520.513 294.144 520.259 293.53 519.807 293.076C519.354 292.623 518.74 292.367 518.099 292.366H315.884Z" fill="#E6E6E6"/>
<path d="M315.884 306.879C315.243 306.88 314.629 307.136 314.177 307.589C313.724 308.042 313.47 308.657 313.47 309.298C313.47 309.939 313.724 310.553 314.177 311.007C314.629 311.46 315.243 311.715 315.884 311.716H453.161C453.801 311.715 454.415 311.46 454.868 311.007C455.32 310.553 455.575 309.939 455.575 309.298C455.575 308.657 455.32 308.042 454.868 307.589C454.415 307.136 453.801 306.88 453.161 306.879H315.884Z" fill="#E6E6E6"/>
<path d="M315.884 321.064C315.243 321.065 314.629 321.32 314.177 321.773C313.724 322.227 313.47 322.842 313.47 323.482C313.47 324.123 313.724 324.738 314.177 325.191C314.629 325.645 315.243 325.9 315.884 325.901H518.099C518.74 325.9 519.354 325.645 519.807 325.191C520.259 324.738 520.513 324.123 520.513 323.482C520.513 322.842 520.259 322.227 519.807 321.773C519.354 321.32 518.74 321.065 518.099 321.064H315.884Z" fill="#E6E6E6"/>
<path d="M315.884 335.576C315.243 335.577 314.629 335.833 314.177 336.286C313.724 336.74 313.47 337.354 313.47 337.995C313.47 338.636 313.724 339.25 314.177 339.704C314.629 340.157 315.243 340.413 315.884 340.414H453.161C453.801 340.413 454.415 340.157 454.868 339.704C455.32 339.25 455.575 338.636 455.575 337.995C455.575 337.354 455.32 336.74 454.868 336.286C454.415 335.833 453.801 335.577 453.161 335.576H315.884Z" fill="#E6E6E6"/>
<path d="M518.692 366.965H480.069C479.569 366.964 479.089 366.765 478.735 366.412C478.382 366.058 478.183 365.578 478.182 365.078V358.887C478.183 358.387 478.382 357.907 478.735 357.553C479.089 357.2 479.569 357.001 480.069 357H518.692C519.192 357.001 519.671 357.2 520.025 357.553C520.379 357.907 520.578 358.387 520.578 358.887V365.078C520.578 365.578 520.379 366.058 520.025 366.412C519.671 366.765 519.192 366.964 518.692 366.965V366.965Z" fill="#6C63FF"/>
<path d="M189.795 294.986C189.109 294.989 188.554 295.88 188.555 296.977C188.557 298.072 189.111 298.958 189.795 298.961H248.375C249.061 298.958 249.617 298.067 249.615 296.97C249.614 295.875 249.06 294.988 248.375 294.986H189.795Z" fill="#E4E4E4"/>
<path d="M189.795 306.501C189.109 306.503 188.554 307.395 188.555 308.492C188.557 309.587 189.111 310.473 189.795 310.475H248.375C249.061 310.473 249.617 309.582 249.615 308.484C249.614 307.39 249.06 306.503 248.375 306.501H189.795Z" fill="#E4E4E4"/>
<path d="M189.795 317.877C189.109 317.879 188.554 318.77 188.555 319.868C188.557 320.962 189.111 321.849 189.795 321.851H215.002C215.689 321.849 216.244 320.957 216.242 319.86C216.241 318.765 215.687 317.879 215.002 317.877H189.795Z" fill="#E4E4E4"/>
<path d="M160.051 324.169C168.831 324.169 175.948 317.05 175.948 308.268C175.948 299.486 168.831 292.366 160.051 292.366C151.272 292.366 144.155 299.486 144.155 308.268C144.155 317.05 151.272 324.169 160.051 324.169Z" fill="#E4E4E4"/>
<path d="M489.205 363.816C489.092 364.686 489.172 365.57 489.438 366.407C489.704 367.243 490.15 368.01 490.745 368.655C491.339 369.3 492.068 369.807 492.88 370.14C493.691 370.473 494.566 370.623 495.442 370.581L503.387 390.374L509.698 381.264L501.186 363.865C501.018 362.397 500.317 361.042 499.217 360.057C498.117 359.071 496.694 358.523 495.217 358.517C493.74 358.511 492.313 359.047 491.205 360.024C490.096 361 489.385 362.35 489.205 363.816Z" fill="#FFB6B6"/>
<path d="M578.779 601.857H571.464L567.984 573.633L578.781 573.633L578.779 601.857Z" fill="#FFB6B6"/>
<path d="M580.644 608.95L557.058 608.949V608.651C557.058 606.215 558.025 603.879 559.747 602.157C561.468 600.435 563.803 599.467 566.238 599.467H566.239L580.645 599.468L580.644 608.95Z" fill="#2F2E41"/>
<path d="M554.841 601.624L547.868 599.416L553.065 571.457L563.358 574.717L554.841 601.624Z" fill="#FFB6B6"/>
<path d="M554.48 608.95L531.994 601.829L532.084 601.544C532.819 599.222 534.446 597.287 536.606 596.165C538.767 595.043 541.285 594.826 543.607 595.56L543.607 595.561L557.341 599.91L554.48 608.95Z" fill="#2F2E41"/>
<path d="M546.178 463.914C546.178 463.914 535.325 480.962 539.16 496.177C542.995 511.392 547.172 540.638 547.172 540.638L567.967 590.143L583.468 589.51L568.074 531.142L568.683 492.116C568.683 492.116 579.382 473.465 577.299 467.659C575.215 461.853 546.178 463.914 546.178 463.914Z" fill="#2F2E41"/>
<path d="M581.636 470.009C581.636 470.009 582.971 486.921 578.795 494.083C574.618 501.245 570.168 528.506 570.168 528.506L563.069 583.026L548.365 578.24L560.903 517.156L570.758 469.107L581.636 470.009Z" fill="#2F2E41"/>
<path d="M586.85 388.141L575.377 380.253L557.919 379.746L551.839 385.708L542.561 390.447L541.702 467.659C541.702 467.659 569.485 480.98 584.433 474.55L591.623 414.403C594.606 402.466 586.85 388.141 586.85 388.141Z" fill="#3F3D56"/>
<path d="M544.891 411.081H514.289L494.184 376.462L507.257 371.282L518.329 390.983L534.353 389.532L544.359 389.048C545.962 388.971 547.563 389.244 549.05 389.851C550.537 390.457 551.873 391.38 552.965 392.557C554.058 393.733 554.88 395.135 555.374 396.662C555.869 398.19 556.024 399.807 555.828 401.401V401.401C555.498 404.071 554.204 406.528 552.19 408.31C550.176 410.093 547.58 411.078 544.891 411.081Z" fill="#3F3D56"/>
<path d="M568.071 373.387C576.432 373.387 583.209 366.608 583.209 358.245C583.209 349.882 576.432 343.103 568.071 343.103C559.711 343.103 552.934 349.882 552.934 358.245C552.934 366.608 559.711 373.387 568.071 373.387Z" fill="#FFB6B6"/>
<path d="M586.31 354.8C585.846 351.476 583.595 348.319 580.394 347.312C579.122 343.618 575.754 340.899 572.033 339.714C568.587 338.614 564.874 338.691 561.476 339.93C558.078 341.17 555.187 343.503 553.258 346.563C552.973 347.011 552.098 348.112 552.122 348.646C552.153 349.325 553.191 350.026 553.713 350.454C555.005 351.453 556.399 352.314 557.872 353.022C563.315 355.845 561.503 360.281 561.429 365.308C561.393 367.751 562.209 369.837 564.291 371.233C567.297 373.246 571.598 372.445 574.868 371.637C578.579 370.72 581.664 367.459 583.78 364.315C585.654 361.531 586.775 358.124 586.31 354.8Z" fill="#2F2E41"/>
<path d="M586.416 407.855L592.306 472.484L573.382 471.469L586.416 407.855Z" fill="#3F3D56"/>
<path d="M651.623 610.674H419.943C419.755 610.673 419.575 610.598 419.442 610.465C419.309 610.331 419.235 610.151 419.235 609.963C419.235 609.775 419.309 609.594 419.442 609.461C419.575 609.328 419.755 609.253 419.943 609.252H651.623C651.812 609.252 651.993 609.327 652.126 609.46C652.259 609.594 652.334 609.774 652.334 609.963C652.334 610.151 652.259 610.332 652.126 610.465C651.993 610.599 651.812 610.674 651.623 610.674V610.674Z" fill="#CACACA"/>
<path d="M122.148 603.588H127.822L130.521 581.696H122.147L122.148 603.588Z" fill="#9E616A"/>
<path d="M120.701 601.735L131.875 601.735H131.876C133.764 601.735 135.575 602.485 136.911 603.821C138.246 605.157 138.996 606.969 138.996 608.858V609.089L120.702 609.09L120.701 601.735Z" fill="#2F2E41"/>
<path d="M174.445 603.588H180.119L182.818 581.696H174.444L174.445 603.588Z" fill="#9E616A"/>
<path d="M172.998 601.735L184.171 601.735H184.172C186.06 601.735 187.872 602.485 189.207 603.821C190.542 605.157 191.293 606.969 191.293 608.858V609.089L172.998 609.09L172.998 601.735Z" fill="#2F2E41"/>
<path d="M167.594 427.713L171.297 451.323L136.124 451.786L140.752 429.102L167.594 427.713Z" fill="#9E616A"/>
<path d="M170.276 445.558L181.479 475.397L182.867 599.053H173.38L150.702 499.702L129.876 596.459H120.62L127.099 487.665C127.099 487.665 125.189 465.829 134.967 452.944L137.347 446.065L170.276 445.558Z" fill="#2F2E41"/>
<path d="M122.224 468.819C123.203 468.552 124.112 468.074 124.886 467.417C125.661 466.761 126.282 465.943 126.706 465.02C127.13 464.098 127.347 463.093 127.341 462.078C127.335 461.063 127.107 460.061 126.672 459.143L141.635 410.344L130.629 408.162L116.944 455.995C115.452 456.828 114.316 458.179 113.753 459.794C113.19 461.408 113.239 463.172 113.89 464.753C114.54 466.334 115.748 467.621 117.284 468.37C118.82 469.12 120.578 469.279 122.224 468.819Z" fill="#9E616A"/>
<path d="M141.958 440.753C141.753 440.753 141.548 440.732 141.347 440.692V440.692C140.67 440.557 140.055 440.203 139.598 439.686C139.14 439.168 138.865 438.515 138.813 437.826C138.465 433.061 136.741 424.767 133.69 413.173C132.659 409.233 132.887 405.068 134.342 401.264C135.797 397.46 138.405 394.207 141.801 391.96C145.197 389.714 149.211 388.587 153.28 388.737C157.349 388.887 161.269 390.307 164.49 392.798C166.552 394.379 168.274 396.36 169.551 398.624C170.827 400.887 171.633 403.386 171.919 405.969C173.435 419.332 170.576 432.747 169.276 437.895C169.105 438.567 168.719 439.165 168.176 439.596C167.633 440.028 166.964 440.269 166.271 440.284L142.026 440.752C142.003 440.753 141.981 440.753 141.958 440.753Z" fill="#3F3D56"/>
<path d="M209.696 397.888C209.551 398.214 209.431 398.552 209.339 398.898L178.99 409.214L173.126 404.089L164.237 411.931L173.737 422.013C174.505 422.827 175.516 423.371 176.618 423.561C177.721 423.752 178.855 423.58 179.852 423.071L212.327 406.477C213.501 407.198 214.867 407.544 216.243 407.469C217.619 407.394 218.939 406.902 220.028 406.058C221.117 405.215 221.924 404.059 222.341 402.745C222.758 401.432 222.765 400.022 222.361 398.705C221.958 397.387 221.163 396.223 220.082 395.369C219.001 394.514 217.686 394.009 216.311 393.92C214.936 393.831 213.567 394.163 212.385 394.872C211.204 395.581 210.266 396.633 209.696 397.888V397.888Z" fill="#9E616A"/>
<path d="M177.932 409.778L166.869 419.444C166.554 419.719 166.184 419.923 165.783 420.042C165.382 420.161 164.961 420.192 164.547 420.133C164.133 420.074 163.737 419.927 163.385 419.701C163.033 419.475 162.734 419.176 162.508 418.825L154.595 406.498C153.196 404.879 152.496 402.771 152.649 400.637C152.801 398.502 153.794 396.516 155.41 395.113C157.025 393.71 159.131 393.005 161.265 393.153C163.399 393.301 165.387 394.291 166.793 395.903L177.905 405.372C178.224 405.643 178.479 405.98 178.656 406.359C178.832 406.738 178.925 407.151 178.927 407.569C178.93 407.987 178.842 408.401 178.67 408.782C178.499 409.163 178.247 409.503 177.932 409.778H177.932Z" fill="#3F3D56"/>
<path d="M139.888 422.839L126.216 417.466C125.827 417.313 125.475 417.078 125.185 416.777C124.895 416.476 124.673 416.116 124.535 415.721C124.396 415.327 124.345 414.907 124.383 414.491C124.421 414.075 124.549 413.671 124.757 413.309L132.052 400.606C132.845 398.619 134.393 397.028 136.357 396.182C138.321 395.335 140.54 395.303 142.528 396.091C144.517 396.879 146.111 398.423 146.963 400.386C147.814 402.348 147.853 404.568 147.07 406.559L143.785 420.787C143.69 421.194 143.51 421.576 143.254 421.907C142.999 422.238 142.676 422.51 142.306 422.705C141.936 422.9 141.529 423.013 141.111 423.036C140.694 423.059 140.277 422.992 139.888 422.839V422.839Z" fill="#3F3D56"/>
<path d="M150.022 385.729C158.236 385.729 164.894 379.068 164.894 370.852C164.894 362.636 158.236 355.976 150.022 355.976C141.809 355.976 135.15 362.636 135.15 370.852C135.15 379.068 141.809 385.729 150.022 385.729Z" fill="#9E616A"/>
<path d="M304.366 610.674H72.6859C72.4979 610.673 72.3177 610.598 72.1849 610.465C72.0521 610.331 71.9775 610.151 71.9775 609.963C71.9775 609.775 72.0521 609.594 72.1849 609.461C72.3177 609.328 72.4979 609.253 72.6859 609.252H304.366C304.554 609.253 304.734 609.328 304.867 609.461C305 609.594 305.075 609.775 305.075 609.963C305.075 610.151 305 610.331 304.867 610.465C304.734 610.598 304.554 610.673 304.366 610.674V610.674Z" fill="#CACACA"/>
<path d="M160.253 364.872C163.444 364.854 166.634 364.836 169.825 364.818C170.052 362.643 169.084 360.479 167.674 358.807C166.188 357.199 164.493 355.797 162.635 354.64C160.805 353.383 158.909 352.098 156.733 351.659C154.909 351.291 153.024 351.547 151.182 351.803C148.738 352.143 146.295 352.483 143.852 352.823C141.17 353.196 138.363 353.618 136.185 355.227C133.239 357.403 132.112 361.215 131.166 364.754L125.926 384.34L156.875 387.588C157.995 387.78 159.141 387.747 160.248 387.489C160.799 387.351 161.297 387.054 161.68 386.634C162.064 386.215 162.316 385.692 162.405 385.131C162.494 383.868 161.492 382.834 160.679 381.865C158.74 379.46 157.575 376.524 157.34 373.443C157.105 370.362 157.811 367.283 159.364 364.612L160.253 364.872Z" fill="#2F2E41"/>
</g>
<g filter="url(#filter0_d_110_1114)">
<rect x="230" y="245" width="120" height="80" rx="10" fill="white"/>
</g>
<path d="M308 285.88C308 286.166 307.888 286.441 307.69 286.644C307.491 286.846 307.222 286.96 306.941 286.96H273.059C272.778 286.96 272.509 286.846 272.31 286.644C272.112 286.441 272 286.166 272 285.88V257.08C272 256.794 272.112 256.519 272.31 256.316C272.509 256.114 272.778 256 273.059 256C273.34 256 273.609 256.114 273.808 256.316C274.006 256.519 274.118 256.794 274.118 257.08V277.51L283.612 267.844C283.707 267.742 283.822 267.66 283.95 267.604C284.077 267.549 284.214 267.52 284.353 267.52C284.492 267.52 284.629 267.549 284.756 267.604C284.884 267.66 284.999 267.742 285.094 267.844L290 272.83L301.559 261.04H297.059C296.778 261.04 296.509 260.926 296.31 260.724C296.112 260.521 296 260.246 296 259.96C296 259.674 296.112 259.399 296.31 259.196C296.509 258.994 296.778 258.88 297.059 258.88H304.118C304.398 258.88 304.668 258.994 304.866 259.196C305.065 259.399 305.176 259.674 305.176 259.96V267.16C305.176 267.446 305.065 267.721 304.866 267.924C304.668 268.126 304.398 268.24 304.118 268.24C303.837 268.24 303.568 268.126 303.369 267.924C303.17 267.721 303.059 267.446 303.059 267.16V262.57L290.741 275.116C290.646 275.218 290.531 275.3 290.403 275.356C290.276 275.411 290.139 275.44 290 275.44C289.861 275.44 289.724 275.411 289.597 275.356C289.469 275.3 289.354 275.218 289.259 275.116L284.353 270.13L274.118 280.57V284.8H306.941C307.222 284.8 307.491 284.914 307.69 285.116C307.888 285.319 308 285.594 308 285.88V285.88Z" fill="#9747FF"/>
<path d="M256.648 301.132C257.059 301.132 257.409 301.141 257.698 301.16C257.997 301.179 258.267 301.211 258.51 301.258C258.762 301.295 259.019 301.347 259.28 301.412L259.154 302.35C258.874 302.322 258.613 302.299 258.37 302.28C258.137 302.261 257.885 302.247 257.614 302.238C257.343 302.229 257.021 302.224 256.648 302.224C256.023 302.224 255.528 302.345 255.164 302.588C254.8 302.831 254.539 303.237 254.38 303.806C254.231 304.375 254.156 305.15 254.156 306.13C254.156 307.11 254.231 307.885 254.38 308.454C254.539 309.023 254.8 309.429 255.164 309.672C255.528 309.915 256.023 310.036 256.648 310.036C257.245 310.036 257.745 310.027 258.146 310.008C258.557 309.98 258.958 309.938 259.35 309.882L259.476 310.806C259.075 310.918 258.659 310.997 258.23 311.044C257.81 311.1 257.283 311.128 256.648 311.128C255.724 311.128 254.982 310.969 254.422 310.652C253.871 310.325 253.47 309.798 253.218 309.07C252.975 308.342 252.854 307.362 252.854 306.13C252.854 304.898 252.975 303.918 253.218 303.19C253.47 302.462 253.871 301.939 254.422 301.622C254.982 301.295 255.724 301.132 256.648 301.132ZM264.016 304.142V310.96H262.826V304.142H264.016ZM266.48 304.142V305.122H260.348V304.142H266.48ZM271.188 303.974C271.692 303.974 272.116 304.044 272.462 304.184C272.807 304.315 273.068 304.539 273.246 304.856C273.423 305.173 273.512 305.607 273.512 306.158V310.96H272.574L272.392 309.476L272.322 309.322V306.158C272.312 305.738 272.214 305.439 272.028 305.262C271.841 305.075 271.477 304.982 270.936 304.982C270.572 304.982 270.119 305.001 269.578 305.038C269.046 305.075 268.518 305.117 267.996 305.164L267.884 304.282C268.201 304.226 268.551 304.175 268.934 304.128C269.316 304.081 269.704 304.044 270.096 304.016C270.488 303.988 270.852 303.974 271.188 303.974ZM272.952 306.76L272.938 307.656L269.69 307.67C269.363 307.679 269.13 307.768 268.99 307.936C268.859 308.095 268.794 308.319 268.794 308.608V309.042C268.794 309.397 268.878 309.658 269.046 309.826C269.223 309.985 269.494 310.064 269.858 310.064C270.119 310.064 270.413 310.017 270.74 309.924C271.076 309.821 271.412 309.667 271.748 309.462C272.084 309.257 272.392 308.995 272.672 308.678V309.56C272.578 309.691 272.434 309.845 272.238 310.022C272.051 310.19 271.822 310.358 271.552 310.526C271.29 310.685 270.996 310.82 270.67 310.932C270.343 311.035 269.993 311.086 269.62 311.086C269.218 311.086 268.864 311.016 268.556 310.876C268.248 310.727 268.01 310.512 267.842 310.232C267.674 309.943 267.59 309.593 267.59 309.182V308.44C267.59 307.908 267.753 307.497 268.08 307.208C268.416 306.909 268.882 306.76 269.48 306.76H272.952ZM278.604 304.142V310.96H277.414V304.142H278.604ZM281.068 304.142V305.122H274.936V304.142H281.068ZM288.534 304.142V310.96H287.456V306.438C287.456 306.289 287.46 306.144 287.47 306.004C287.479 305.855 287.488 305.696 287.498 305.528H287.47C287.414 305.659 287.339 305.799 287.246 305.948C287.162 306.088 287.078 306.214 286.994 306.326L283.522 310.96H282.542V304.142H283.62V308.664C283.62 308.813 283.615 308.963 283.606 309.112C283.606 309.252 283.596 309.406 283.578 309.574H283.606C283.68 309.434 283.76 309.294 283.844 309.154C283.928 309.014 284.012 308.893 284.096 308.79L287.568 304.142H288.534ZM293.67 303.974C293.876 303.974 294.104 303.983 294.356 304.002C294.618 304.021 294.879 304.053 295.14 304.1C295.402 304.147 295.644 304.212 295.868 304.296L295.714 305.066C295.406 305.038 295.08 305.019 294.734 305.01C294.398 304.991 294.109 304.982 293.866 304.982C293.334 304.982 292.905 305.057 292.578 305.206C292.261 305.355 292.032 305.617 291.892 305.99C291.752 306.363 291.682 306.881 291.682 307.544C291.682 308.207 291.752 308.729 291.892 309.112C292.032 309.485 292.261 309.747 292.578 309.896C292.905 310.045 293.334 310.12 293.866 310.12C294.006 310.12 294.188 310.115 294.412 310.106C294.646 310.097 294.888 310.083 295.14 310.064C295.402 310.045 295.649 310.017 295.882 309.98L295.994 310.778C295.658 310.899 295.285 310.988 294.874 311.044C294.473 311.1 294.072 311.128 293.67 311.128C292.886 311.128 292.256 311.011 291.78 310.778C291.304 310.545 290.959 310.167 290.744 309.644C290.539 309.121 290.436 308.421 290.436 307.544C290.436 306.667 290.539 305.967 290.744 305.444C290.959 304.921 291.304 304.548 291.78 304.324C292.256 304.091 292.886 303.974 293.67 303.974ZM300.575 304.142V310.96H299.385V304.142H300.575ZM303.039 304.142V305.122H296.907V304.142H303.039ZM310.504 304.142V310.96H309.426V306.438C309.426 306.289 309.431 306.144 309.44 306.004C309.45 305.855 309.459 305.696 309.468 305.528H309.44C309.384 305.659 309.31 305.799 309.216 305.948C309.132 306.088 309.048 306.214 308.964 306.326L305.492 310.96H304.512V304.142H305.59V308.664C305.59 308.813 305.586 308.963 305.576 309.112C305.576 309.252 305.567 309.406 305.548 309.574H305.576C305.651 309.434 305.73 309.294 305.814 309.154C305.898 309.014 305.982 308.893 306.066 308.79L309.538 304.142H310.504ZM318.455 304.142C318.306 304.543 318.161 304.912 318.021 305.248C317.89 305.575 317.755 305.864 317.615 306.116C317.484 306.368 317.335 306.583 317.167 306.76C317.008 306.937 316.822 307.082 316.607 307.194C316.392 307.297 316.14 307.362 315.851 307.39V307.432C316.159 307.46 316.425 307.525 316.649 307.628C316.873 307.731 317.069 307.875 317.237 308.062C317.414 308.239 317.573 308.463 317.713 308.734C317.862 309.005 318.012 309.327 318.161 309.7C318.31 310.064 318.474 310.484 318.651 310.96H317.405C317.237 310.521 317.083 310.134 316.943 309.798C316.803 309.453 316.663 309.159 316.523 308.916C316.392 308.673 316.248 308.477 316.089 308.328C315.93 308.169 315.744 308.057 315.529 307.992C315.324 307.917 315.081 307.88 314.801 307.88V306.956C315.137 306.956 315.422 306.895 315.655 306.774C315.888 306.643 316.089 306.457 316.257 306.214C316.434 305.971 316.598 305.677 316.747 305.332C316.896 304.987 317.055 304.59 317.223 304.142H318.455ZM313.919 304.142V306.172C313.919 306.377 313.905 306.583 313.877 306.788C313.849 306.993 313.807 307.194 313.751 307.39C313.807 307.586 313.849 307.782 313.877 307.978C313.905 308.174 313.919 308.361 313.919 308.538V310.96H312.729V304.142H313.919ZM315.249 306.956V307.88H313.569V306.956H315.249ZM323.469 303.974C323.973 303.974 324.398 304.044 324.743 304.184C325.088 304.315 325.35 304.539 325.527 304.856C325.704 305.173 325.793 305.607 325.793 306.158V310.96H324.855L324.673 309.476L324.603 309.322V306.158C324.594 305.738 324.496 305.439 324.309 305.262C324.122 305.075 323.758 304.982 323.217 304.982C322.853 304.982 322.4 305.001 321.859 305.038C321.327 305.075 320.8 305.117 320.277 305.164L320.165 304.282C320.482 304.226 320.832 304.175 321.215 304.128C321.598 304.081 321.985 304.044 322.377 304.016C322.769 303.988 323.133 303.974 323.469 303.974ZM325.233 306.76L325.219 307.656L321.971 307.67C321.644 307.679 321.411 307.768 321.271 307.936C321.14 308.095 321.075 308.319 321.075 308.608V309.042C321.075 309.397 321.159 309.658 321.327 309.826C321.504 309.985 321.775 310.064 322.139 310.064C322.4 310.064 322.694 310.017 323.021 309.924C323.357 309.821 323.693 309.667 324.029 309.462C324.365 309.257 324.673 308.995 324.953 308.678V309.56C324.86 309.691 324.715 309.845 324.519 310.022C324.332 310.19 324.104 310.358 323.833 310.526C323.572 310.685 323.278 310.82 322.951 310.932C322.624 311.035 322.274 311.086 321.901 311.086C321.5 311.086 321.145 311.016 320.837 310.876C320.529 310.727 320.291 310.512 320.123 310.232C319.955 309.943 319.871 309.593 319.871 309.182V308.44C319.871 307.908 320.034 307.497 320.361 307.208C320.697 306.909 321.164 306.76 321.761 306.76H325.233Z" fill="#40433D"/>
<circle cx="361.5" cy="152.669" r="57.6747" fill="#B1A9FF"/>
<path d="M368.649 78.3204C368.308 76.7524 368.208 77.9075 367.466 76.4853C367.975 78.3231 367.035 77.7213 365.786 79.1624C357.012 80.5334 356.074 76.0076 352.827 76.0994C352.272 76.0994 353.345 73.1056 353.342 72.5497C352.087 70.5048 352.555 64.7165 353.864 66.2812C353.864 62.1522 357.223 58.8057 361.367 58.8057C365.185 58.8057 368.338 61.6502 368.806 65.3286C368.963 66.5592 369.158 67.7818 369.391 68.9989L370.472 72.653C371.991 75.5723 371.273 77.8405 368.649 78.3204V78.3204Z" fill="#2F2E41"/>
<path d="M359.514 72.7799C362.552 72.7799 365.015 70.326 365.015 67.2991C365.015 64.2721 362.552 61.8182 359.514 61.8182C356.477 61.8182 354.014 64.2721 354.014 67.2991C354.014 70.326 356.477 72.7799 359.514 72.7799Z" fill="#A0616A"/>
<path d="M342.324 183.759C346.256 183.759 349.443 180.583 349.443 176.665C349.443 172.748 346.256 169.572 342.324 169.572C338.393 169.572 335.206 172.748 335.206 176.665C335.206 180.583 338.393 183.759 342.324 183.759Z" fill="#E6E6E6"/>
<path d="M275.158 85.9514C276.933 85.9514 278.372 84.5174 278.372 82.7485C278.372 80.9796 276.933 79.5457 275.158 79.5457C273.383 79.5457 271.944 80.9796 271.944 82.7485C271.944 84.5174 273.383 85.9514 275.158 85.9514Z" fill="#6C63FF"/>
<path d="M275.169 103.493H275.158C273.277 103.419 271.474 103.164 269.789 102.735L269.923 102.212C271.572 102.632 273.337 102.881 275.169 102.954L275.169 103.493V103.493ZM280.556 102.789L280.416 102.268C282.125 101.812 283.769 101.132 285.304 100.246L285.575 100.713C284 101.622 282.311 102.321 280.556 102.789V102.789ZM264.735 100.757C263.131 99.874 261.669 98.7802 260.389 97.5062L260.771 97.1243C262.016 98.3626 263.437 99.4259 264.997 100.284L264.735 100.757ZM289.882 97.414L289.499 97.0324C290.753 95.7827 291.837 94.3754 292.723 92.8493L293.192 93.1194C292.283 94.6862 291.169 96.1311 289.882 97.414L289.882 97.414ZM257.116 93.1806C256.242 91.616 255.57 89.9217 255.118 88.1448L255.643 88.0125C256.083 89.7439 256.738 91.3943 257.589 92.9178L257.116 93.1806H257.116ZM295.273 88.1163L294.749 87.9769C295.204 86.2807 295.435 84.5216 295.435 82.7484L295.435 82.7004H295.976L295.976 82.7462C295.976 84.5685 295.74 86.3745 295.273 88.1163ZM254.605 82.7673L254.448 82.7599C254.448 80.9416 254.67 79.1401 255.108 77.3996L255.634 77.5309C255.207 79.2286 254.99 80.9859 254.99 82.7541L254.605 82.7673V82.7673ZM294.737 77.4737C294.277 75.7722 293.591 74.135 292.7 72.6074L293.168 72.3362C294.083 73.9047 294.787 75.5859 295.26 77.3332L294.737 77.4737V77.4737ZM257.568 72.6212L257.094 72.3598C257.983 70.7595 259.08 69.3015 260.355 68.0263L260.738 68.4071C259.5 69.6469 258.433 71.0647 257.568 72.6212H257.568ZM289.467 68.4326C288.21 67.1855 286.796 66.107 285.263 65.2274L285.534 64.7596C287.107 65.6628 288.559 66.7698 289.849 68.0502L289.467 68.4326H289.467ZM264.955 65.2356L264.692 64.7638C266.241 63.9057 267.94 63.2361 269.742 62.7736L269.877 63.2962C268.12 63.7473 266.464 64.3997 264.955 65.2356H264.955ZM280.37 63.217C278.678 62.7701 276.925 62.5434 275.158 62.5434L275.133 62.5447L275.11 62.0055L275.147 62.0039H275.15C276.974 62.0039 278.773 62.2366 280.509 62.6952L280.37 63.217V63.217Z" fill="#3F3D56"/>
<path d="M368.759 107.282H349.099C350.747 103.617 351.76 100.128 350.176 97.352L367.805 96.3187C366.721 102.526 368.888 104.955 368.759 107.282Z" fill="#A0616A"/>
<path d="M368.83 177.757L366.199 177.819L364.732 166.041L368.615 165.95L368.83 177.757Z" fill="#A0616A"/>
<path d="M359.803 183.227C359.803 183.669 360.119 184.028 360.508 184.028H365.73C365.73 184.028 366.244 181.97 368.339 181.084L368.483 184.028H371.177L370.851 179.294C370.851 179.294 371.571 176.761 370.075 175.467C368.578 174.172 369.79 174.352 369.79 174.352L369.202 171.422L365.131 171.899L365.101 176.499L363.126 181.064L360.228 182.491C359.97 182.617 359.803 182.907 359.803 183.227L359.803 183.227H359.803V183.227Z" fill="#2F2E41"/>
<path d="M344.382 165.713L341.763 165.977L339.39 154.347L343.253 153.957L344.382 165.713Z" fill="#A0616A"/>
<path d="M335.806 171.86C335.84 172.301 336.182 172.635 336.57 172.605L341.777 172.204C341.777 172.204 342.13 170.112 344.15 169.068L344.522 171.992L347.208 171.785L346.516 167.09C346.516 167.09 347.039 164.509 345.446 163.334C343.854 162.158 345.077 162.244 345.077 162.244L344.263 159.368L340.241 160.157L340.567 164.745L338.951 169.449L336.173 171.093C335.925 171.24 335.781 171.541 335.806 171.86L335.806 171.86V171.86V171.86Z" fill="#2F2E41"/>
<path d="M366.93 105.273L368.863 105.915C371.884 111.475 373.165 118.859 372.995 127.763L369.563 167.755H363.947L359.837 123.202L357.657 125.026L345.008 135.606L344.622 156.69L339.32 157.228L334.329 135.036L349.349 105.72L366.93 105.273V105.273V105.273Z" fill="#2F2E41"/>
<path d="M370.574 78.9538C370.171 77.7484 364.727 77.1457 364.727 77.1457L363.114 73.7302L357.065 74.132L353.638 77.1457C353.638 77.1457 350.412 77.7484 350.009 78.9538C349.605 80.1593 349.93 96.8587 349.93 96.8587L349.605 102.46L367.751 102.058L367.805 97.3984C367.805 97.3984 370.977 80.1593 370.574 78.9538H370.574V78.9538Z" fill="#E6E6E6"/>
<path d="M377.832 131.19C385.07 131.19 390.938 125.343 390.938 118.131C390.938 110.918 385.07 105.072 377.832 105.072C370.594 105.072 364.727 110.918 364.727 118.131C364.727 125.343 370.594 131.19 377.832 131.19Z" fill="#6C63FF"/>
<path d="M377.832 122.877C377.629 122.877 377.439 122.775 377.326 122.605L374 117.558C373.816 117.279 373.894 116.906 374.173 116.723C374.453 116.54 374.828 116.618 375.011 116.896L377.796 121.122L382.045 113.713C382.211 113.424 382.58 113.324 382.87 113.489C383.16 113.654 383.261 114.022 383.095 114.311L378.357 122.573C378.253 122.755 378.061 122.87 377.851 122.876C377.845 122.877 377.838 122.877 377.832 122.877V122.877Z" fill="white"/>
<path d="M382.701 97.938L384.731 103.688L385.8 114.588L383.279 114.619L380.752 105.226L375.879 93.075L382.701 97.938Z" fill="#A0616A"/>
<path d="M385.301 119.231C386.203 119.059 386.698 117.692 386.407 116.178C386.115 114.663 385.148 113.576 384.245 113.748C383.343 113.921 382.848 115.288 383.14 116.802C383.431 118.316 384.399 119.404 385.301 119.231Z" fill="#A0616A"/>
<path d="M367.8 78.1658C367.8 78.1658 371.383 76.7777 373.001 80.0193C374.618 83.261 383.322 97.6893 383.322 97.6893L383.962 99.4221L378.852 101.663L378.062 99.525C378.062 99.525 375.226 100.595 375.047 98.9479C374.978 98.315 369.87 91.1108 368.558 87.3919C366.457 81.4318 367.8 78.1658 367.8 78.1658L367.8 78.1658V78.1658Z" fill="#E6E6E6"/>
<path d="M384.542 179.706C385.101 179.741 385.41 179.048 384.987 178.645L384.945 178.478C384.95 178.464 384.956 178.451 384.962 178.438C385.528 177.093 387.445 177.103 388.006 178.449C388.504 179.644 389.138 180.841 389.294 182.105C389.364 182.663 389.333 183.231 389.209 183.778C390.375 181.238 390.989 178.465 390.989 175.676C390.989 174.976 390.951 174.275 390.872 173.576C390.807 173.004 390.718 172.436 390.603 171.873C389.978 168.829 388.626 165.931 386.676 163.509C385.738 162.999 384.956 162.2 384.484 161.243C384.314 160.898 384.181 160.527 384.118 160.149C384.225 160.163 384.52 158.543 384.44 158.444C384.589 158.219 384.855 158.107 385.017 157.888C385.825 156.797 386.938 156.987 387.519 158.47C388.76 159.094 388.772 160.129 388.01 161.125C387.526 161.758 387.459 162.615 387.034 163.293C387.078 163.349 387.123 163.403 387.167 163.459C387.969 164.484 388.663 165.586 389.247 166.743C389.082 165.457 389.326 163.907 389.742 162.908C390.216 161.77 391.103 160.811 391.884 159.827C392.823 158.646 394.748 159.161 394.913 160.66C394.915 160.674 394.917 160.689 394.918 160.703C394.802 160.768 394.688 160.838 394.577 160.911C393.944 161.328 394.163 162.307 394.913 162.423L394.93 162.425C394.888 162.842 394.817 163.255 394.712 163.661C395.714 167.525 393.55 168.932 390.459 168.995C390.391 169.03 390.325 169.065 390.256 169.098C390.57 169.976 390.82 170.877 391.005 171.791C391.171 172.598 391.287 173.414 391.351 174.233C391.432 175.267 391.425 176.305 391.337 177.337L391.343 177.301C391.565 176.164 392.184 175.103 393.083 174.367C394.423 173.271 396.315 172.867 397.76 171.986C398.456 171.561 399.347 172.11 399.226 172.913L399.22 172.952C399.004 173.039 398.795 173.14 398.592 173.253C398.476 173.319 398.362 173.388 398.251 173.461C397.617 173.879 397.836 174.857 398.587 174.973L398.604 174.976C398.616 174.977 398.627 174.979 398.639 174.981C398.27 175.854 397.755 176.665 397.112 177.364C396.485 180.736 393.792 181.056 390.912 180.074H390.911C390.596 181.441 390.136 182.776 389.544 184.048H384.664C384.646 183.994 384.631 183.939 384.615 183.884C385.066 183.912 385.521 183.886 385.965 183.804C385.603 183.362 385.241 182.915 384.879 182.473C384.87 182.464 384.863 182.455 384.856 182.446C384.673 182.22 384.487 181.995 384.304 181.768L384.303 181.768C384.292 181.072 384.376 180.379 384.541 179.706L384.542 179.706L384.542 179.706L384.542 179.706Z" fill="#E6E6E6"/>
<path d="M343.7 101.177L343.634 106.642L345.566 117.423L348.002 116.773L347.883 107.049L349.272 94.037L343.7 101.177Z" fill="#A0616A"/>
<path d="M347.308 121.758C348.224 121.681 348.86 120.373 348.729 118.837C348.598 117.3 347.75 116.118 346.835 116.195C345.919 116.272 345.283 117.581 345.414 119.117C345.545 120.653 346.393 121.836 347.308 121.758Z" fill="#A0616A"/>
<path d="M352.999 77.5047C352.999 77.5047 349.172 77.1351 348.496 80.692C347.82 84.2489 343.361 100.486 343.361 100.486L343.215 102.327L348.743 103.106L348.923 100.835C348.923 100.835 351.944 101.1 351.669 99.4656C351.394 97.8317 352.999 77.5047 352.999 77.5047V77.5047V77.5047Z" fill="#E6E6E6"/>
<path d="M352.089 66.7277C352.014 62.8078 354.581 59.4314 358.023 60.8143H359.143C362.419 60.818 368.018 65.4351 365.851 68.6736C362.872 66.2447 363.818 78.4651 360.729 79.1478C360.703 79.4598 359.778 79.0319 359.762 78.7193L362.936 69.2199C362.786 67.639 362.439 66.0828 361.904 64.5873L361.812 68.0829L360.519 66.8393C359.466 66.8665 359.146 65.1032 357.416 66.375C355.687 67.6468 353.844 66.4164 352.088 66.8393V66.7277H352.089V66.7277Z" fill="#2F2E41"/>
<circle cx="108.564" cy="237.41" r="108.564" fill="#B1A9FF"/>
<path d="M95.6299 101.972C95.6299 101.972 81.8803 95.7122 73.1011 101.972C64.322 108.233 56.495 164.574 65.8874 173.964C75.2797 183.354 90.9337 162.226 90.9337 162.226L95.6299 101.972Z" fill="#FFB6B6"/>
<path d="M147.595 102.718C147.595 102.718 161.345 96.4574 170.124 102.718C178.903 108.978 186.73 165.319 177.338 174.709C167.945 184.1 152.291 162.972 152.291 162.972L147.595 102.718Z" fill="#FFB6B6"/>
<path d="M147.203 171.97C147.203 171.97 151.9 193.098 157.378 202.489L117.461 225.964L86.1529 205.619C86.1529 205.619 101.024 181.361 98.676 174.318L147.203 171.97V171.97Z" fill="#FFB6B6"/>
<path d="M105.721 82.7633L130.767 83.5458L144.073 99.9787L158.944 103.109C158.944 103.109 163.64 146.93 156.596 162.58C149.552 178.231 152.683 182.926 152.683 182.926L96.3282 182.143C96.3282 182.143 97.8936 171.515 88.5013 162.352L83.7911 144.925C81.2728 135.608 82.1307 125.7 86.2132 116.954L96.3282 95.2836L104.938 92.1536L105.721 82.7633V82.7633Z" fill="#2F2E41"/>
<path d="M153.189 192.075L156.72 195.568C156.72 195.568 167.706 204.415 169.275 229.561C170.844 254.707 160.349 332.545 160.349 332.545L140.178 341.202L120.608 225.988L91.5627 344.389C91.5627 344.389 84.2639 343.346 79.7187 342.111C75.5382 340.975 69.2412 338.467 69.2412 338.467L73.5417 223.973C73.5417 223.973 78.2499 198.362 90.8051 192.774C90.8051 192.774 131.217 214.427 153.189 192.075Z" fill="#2F2E41"/>
<path d="M185.279 99.6134C185.279 107.737 185.768 113.782 194.642 114.323C202.976 114.831 204.004 107.737 204.004 99.6134C204.004 91.4895 203.81 84.9696 194.642 84.9038C184.203 84.8289 185.279 91.4895 185.279 99.6134Z" fill="#6C63FF"/>
<path d="M133.115 99.6137C133.115 107.738 130.98 113.782 142.478 114.323C151.324 114.739 151.841 107.738 151.841 99.6137C151.841 91.4898 150.541 85.8156 142.478 84.9041C134.893 84.0466 133.115 91.4898 133.115 99.6137Z" fill="#6C63FF"/>
<path d="M141.14 92.9279H193.304V104.963H141.14V92.9279Z" fill="#6C63FF"/>
<path d="M95.2686 97.2652C95.2686 105.389 95.758 111.434 104.631 111.975C112.965 112.483 113.994 105.389 113.994 97.2652C113.994 89.1413 113.8 82.6214 104.631 82.5556C94.1926 82.4806 95.2686 89.1413 95.2686 97.2652Z" fill="#6C63FF"/>
<path d="M43.1045 97.2661C43.1045 105.39 40.9692 111.435 52.4673 111.976C61.3129 112.392 61.8301 105.39 61.8301 97.2661C61.8301 89.1422 60.5307 83.4681 52.4673 82.5565C44.8827 81.6991 43.1045 89.1422 43.1045 97.2661Z" fill="#6C63FF"/>
<path d="M51.1303 90.58H103.294V102.615H51.1303V90.58Z" fill="#6C63FF"/>
<path d="M76.8112 115.749C71.1949 115.749 66.642 108.38 66.642 99.2887C66.642 90.1977 71.1949 82.828 76.8112 82.828C82.4275 82.828 86.9805 90.1977 86.9805 99.2887C86.9805 108.38 82.4275 115.749 76.8112 115.749Z" fill="#FFB6B6"/>
<path d="M124.897 73.3731C109.551 73.3731 97.111 60.9358 97.111 45.5937C97.111 30.2515 109.551 17.8142 124.897 17.8142C140.242 17.8142 152.683 30.2515 152.683 45.5937C152.683 60.9358 140.242 73.3731 124.897 73.3731Z" fill="#FFB6B6"/>
<path d="M130.475 54.3224L124.046 44.0938L121.151 30.1832C121.151 30.1832 91.8644 37.3246 99.7218 23.0418C107.579 8.75893 127.58 5.18822 141.152 15.9004L147.001 21.6135C147.001 21.6135 134.008 9.47307 141.866 5.18821C149.723 0.903354 148.295 -1.95321 152.58 1.6175C156.866 5.18821 154.723 8.04478 159.723 5.90236C164.724 3.75993 175.438 0.903357 174.01 4.47407C172.581 8.04479 183.357 17.3286 179.398 21.6135C175.438 25.8983 179.01 34.4681 171.867 32.3256C164.724 30.1832 168.295 40.8953 161.866 36.6105C161.866 36.6105 167.143 43.3333 162.857 48.3323C158.571 53.3313 151.968 55.2762 152.682 62.4177C153.396 69.5591 136.245 71.0254 136.245 71.0254L137.58 50.1792C137.58 50.1792 133.332 46.6973 130.475 54.3224V54.3224Z" fill="#2F2E41"/>
<path d="M156.244 100.034C156.244 109.125 160.797 116.495 166.413 116.495C172.03 116.495 176.583 109.125 176.583 100.034C176.583 90.9431 172.03 83.5734 166.413 83.5734C160.797 83.5734 156.244 90.9431 156.244 100.034Z" fill="#FFB6B6"/>
<g filter="url(#filter1_d_110_1114)">
<rect x="434" y="183" width="120" height="80" rx="10" fill="white"/>
</g>
<path d="M459.714 240.34L457.11 247.62C456.951 248.049 456.779 248.446 456.592 248.81C456.405 249.174 456.181 249.473 455.92 249.706C455.659 249.939 455.332 250.07 454.94 250.098C454.781 250.107 454.595 250.103 454.38 250.084C454.175 250.075 453.965 250.051 453.75 250.014C453.545 249.977 453.363 249.939 453.204 249.902L453.344 248.992C453.811 249.029 454.175 249.048 454.436 249.048C454.707 249.048 454.917 249.006 455.066 248.922C455.225 248.829 455.36 248.679 455.472 248.474C455.584 248.269 455.715 247.984 455.864 247.62L456.186 246.794L456.326 246.36L458.454 240.34H459.714ZM453.568 240.34L455.514 245.926C455.57 246.075 455.677 246.15 455.836 246.15H456.522L456.704 247.186H455.5C455.239 247.186 455.029 247.135 454.87 247.032C454.721 246.92 454.609 246.752 454.534 246.528L452.294 240.34H453.568ZM466.423 243.182V250H465.247V243.182H466.423ZM461.747 243.182V250H460.585V243.182H461.747ZM465.373 243.182L465.359 244.148H461.677V243.182H465.373ZM472.543 243.014C473.383 243.014 473.985 243.322 474.349 243.938C474.713 244.545 474.895 245.441 474.895 246.626C474.895 247.503 474.802 248.203 474.615 248.726C474.429 249.239 474.144 249.608 473.761 249.832C473.379 250.056 472.898 250.168 472.319 250.168C471.871 250.168 471.428 250.107 470.989 249.986C470.551 249.865 470.131 249.678 469.729 249.426L469.799 248.712C470.238 248.833 470.621 248.936 470.947 249.02C471.283 249.095 471.638 249.132 472.011 249.132C472.413 249.132 472.73 249.062 472.963 248.922C473.206 248.782 473.383 248.53 473.495 248.166C473.607 247.802 473.663 247.289 473.663 246.626C473.663 245.982 473.612 245.473 473.509 245.1C473.416 244.727 473.257 244.461 473.033 244.302C472.819 244.134 472.529 244.05 472.165 244.05C471.792 244.05 471.423 244.139 471.059 244.316C470.695 244.493 470.271 244.764 469.785 245.128L469.659 244.33C469.911 244.059 470.196 243.826 470.513 243.63C470.831 243.434 471.162 243.285 471.507 243.182C471.862 243.07 472.207 243.014 472.543 243.014ZM469.617 243.182L469.757 244.596L469.827 244.778V249.146L469.771 249.314C469.799 249.575 469.818 249.827 469.827 250.07C469.837 250.313 469.837 250.569 469.827 250.84V252.814H468.651V243.182H469.617ZM480.033 243.014C480.537 243.014 480.962 243.084 481.307 243.224C481.653 243.355 481.914 243.579 482.091 243.896C482.269 244.213 482.357 244.647 482.357 245.198V250H481.419L481.237 248.516L481.167 248.362V245.198C481.158 244.778 481.06 244.479 480.873 244.302C480.687 244.115 480.323 244.022 479.781 244.022C479.417 244.022 478.965 244.041 478.423 244.078C477.891 244.115 477.364 244.157 476.841 244.204L476.729 243.322C477.047 243.266 477.397 243.215 477.779 243.168C478.162 243.121 478.549 243.084 478.941 243.056C479.333 243.028 479.697 243.014 480.033 243.014ZM481.797 245.8L481.783 246.696L478.535 246.71C478.209 246.719 477.975 246.808 477.835 246.976C477.705 247.135 477.639 247.359 477.639 247.648V248.082C477.639 248.437 477.723 248.698 477.891 248.866C478.069 249.025 478.339 249.104 478.703 249.104C478.965 249.104 479.259 249.057 479.585 248.964C479.921 248.861 480.257 248.707 480.593 248.502C480.929 248.297 481.237 248.035 481.517 247.718V248.6C481.424 248.731 481.279 248.885 481.083 249.062C480.897 249.23 480.668 249.398 480.397 249.566C480.136 249.725 479.842 249.86 479.515 249.972C479.189 250.075 478.839 250.126 478.465 250.126C478.064 250.126 477.709 250.056 477.401 249.916C477.093 249.767 476.855 249.552 476.687 249.272C476.519 248.983 476.435 248.633 476.435 248.222V247.48C476.435 246.948 476.599 246.537 476.925 246.248C477.261 245.949 477.728 245.8 478.325 245.8H481.797ZM493.792 243.182C493.643 243.583 493.503 243.947 493.372 244.274C493.251 244.601 493.125 244.89 492.994 245.142C492.863 245.394 492.719 245.613 492.56 245.8C492.411 245.977 492.233 246.122 492.028 246.234C491.823 246.337 491.58 246.402 491.3 246.43V246.458C491.599 246.486 491.855 246.556 492.07 246.668C492.285 246.771 492.471 246.915 492.63 247.102C492.798 247.279 492.952 247.508 493.092 247.788C493.232 248.059 493.372 248.381 493.512 248.754C493.661 249.118 493.82 249.533 493.988 250H492.77C492.555 249.459 492.364 248.992 492.196 248.6C492.028 248.208 491.86 247.886 491.692 247.634C491.533 247.382 491.347 247.2 491.132 247.088C490.927 246.967 490.67 246.906 490.362 246.906V246.01C490.642 246.01 490.885 245.945 491.09 245.814C491.305 245.683 491.491 245.497 491.65 245.254C491.809 245.011 491.963 244.717 492.112 244.372C492.261 244.017 492.42 243.621 492.588 243.182H493.792ZM485.28 243.182C485.448 243.621 485.607 244.017 485.756 244.372C485.915 244.717 486.073 245.011 486.232 245.254C486.391 245.497 486.573 245.683 486.778 245.814C486.983 245.945 487.226 246.01 487.506 246.01V246.906C487.207 246.906 486.951 246.967 486.736 247.088C486.531 247.2 486.344 247.382 486.176 247.634C486.017 247.886 485.854 248.208 485.686 248.6C485.527 248.992 485.336 249.459 485.112 250H483.894C484.062 249.533 484.216 249.118 484.356 248.754C484.505 248.381 484.65 248.059 484.79 247.788C484.93 247.508 485.079 247.279 485.238 247.102C485.406 246.915 485.597 246.771 485.812 246.668C486.036 246.556 486.293 246.486 486.582 246.458V246.43C486.302 246.402 486.059 246.337 485.854 246.234C485.658 246.122 485.481 245.977 485.322 245.8C485.163 245.613 485.019 245.394 484.888 245.142C484.757 244.89 484.627 244.601 484.496 244.274C484.375 243.947 484.239 243.583 484.09 243.182H485.28ZM488.682 246.01V246.906H487.184V246.01H488.682ZM489.494 243.182V245.212C489.494 245.427 489.48 245.637 489.452 245.842C489.433 246.038 489.391 246.234 489.326 246.43C489.373 246.626 489.41 246.822 489.438 247.018C489.475 247.214 489.494 247.401 489.494 247.578V250H488.444V247.578C488.444 247.401 488.458 247.214 488.486 247.018C488.523 246.822 488.565 246.626 488.612 246.43C488.547 246.234 488.5 246.038 488.472 245.842C488.453 245.637 488.444 245.427 488.444 245.212V243.182H489.494ZM490.698 246.01V246.906H489.27V246.01H490.698ZM496.747 243.182V250H495.571V243.182H496.747ZM500.457 245.926V246.836H496.663V245.926H500.457ZM501.507 243.182V250H500.331V243.182H501.507ZM506.519 243.014C507.546 243.014 508.288 243.201 508.745 243.574C509.212 243.947 509.45 244.503 509.459 245.24C509.459 245.847 509.329 246.323 509.067 246.668C508.815 247.004 508.405 247.172 507.835 247.172H503.845V246.248H507.527C507.826 246.248 508.022 246.145 508.115 245.94C508.218 245.725 508.265 245.492 508.255 245.24C508.255 244.801 508.129 244.489 507.877 244.302C507.625 244.115 507.191 244.022 506.575 244.022C506.081 244.022 505.689 244.097 505.399 244.246C505.119 244.386 504.919 244.638 504.797 245.002C504.685 245.357 504.629 245.856 504.629 246.5C504.629 247.228 504.699 247.783 504.839 248.166C504.989 248.549 505.222 248.81 505.539 248.95C505.857 249.09 506.277 249.16 506.799 249.16C507.173 249.16 507.574 249.146 508.003 249.118C508.442 249.081 508.834 249.039 509.179 248.992L509.291 249.79C509.086 249.874 508.825 249.944 508.507 250C508.19 250.056 507.863 250.098 507.527 250.126C507.201 250.154 506.907 250.168 506.645 250.168C505.871 250.168 505.241 250.051 504.755 249.818C504.279 249.575 503.934 249.193 503.719 248.67C503.505 248.138 503.397 247.438 503.397 246.57C503.397 245.674 503.505 244.969 503.719 244.456C503.943 243.933 504.284 243.565 504.741 243.35C505.199 243.126 505.791 243.014 506.519 243.014ZM512.456 243.182V250H511.28V243.182H512.456ZM516.166 245.926V246.836H512.372V245.926H516.166ZM517.216 243.182V250H516.04V243.182H517.216ZM525.42 243.182V250H524.342V245.478C524.342 245.329 524.347 245.184 524.356 245.044C524.366 244.895 524.375 244.736 524.384 244.568H524.356C524.3 244.699 524.226 244.839 524.132 244.988C524.048 245.128 523.964 245.254 523.88 245.366L520.408 250H519.428V243.182H520.506V247.704C520.506 247.853 520.502 248.003 520.492 248.152C520.492 248.292 520.483 248.446 520.464 248.614H520.492C520.567 248.474 520.646 248.334 520.73 248.194C520.814 248.054 520.898 247.933 520.982 247.83L524.454 243.182H525.42ZM530.025 243.112C530.538 243.112 530.963 243.117 531.299 243.126C531.635 243.126 531.934 243.135 532.195 243.154C532.466 243.163 532.746 243.182 533.035 243.21L532.867 244.12C532.764 244.101 532.456 244.087 531.943 244.078C531.439 244.069 530.809 244.064 530.053 244.064C529.484 244.064 529.106 244.162 528.919 244.358C528.742 244.545 528.653 244.857 528.653 245.296C528.653 245.753 528.746 246.085 528.933 246.29C529.129 246.486 529.516 246.584 530.095 246.584H532.881L532.909 247.466C532.806 247.466 532.634 247.471 532.391 247.48C532.148 247.48 531.831 247.48 531.439 247.48C531.047 247.48 530.58 247.48 530.039 247.48C529.712 247.48 529.446 247.541 529.241 247.662C529.045 247.783 528.914 247.956 528.849 248.18L528.331 250H527.099L527.715 247.956C527.78 247.76 527.883 247.601 528.023 247.48C528.172 247.359 528.336 247.27 528.513 247.214C528.7 247.149 528.877 247.107 529.045 247.088V247.032C528.672 246.976 528.368 246.869 528.135 246.71C527.911 246.551 527.748 246.341 527.645 246.08C527.542 245.809 527.491 245.492 527.491 245.128C527.491 244.811 527.528 244.526 527.603 244.274C527.687 244.022 527.827 243.812 528.023 243.644C528.219 243.467 528.48 243.336 528.807 243.252C529.134 243.159 529.54 243.112 530.025 243.112ZM533.035 243.21V250H531.873V243.21H533.035Z" fill="#40433D"/>
<path d="M485.66 226.274H499.39C508.053 226.274 512 219.915 512 214.01C511.935 212.624 511.587 211.267 510.979 210.02C510.371 208.774 509.515 207.665 508.464 206.76C506.301 204.7 503.446 203.522 500.459 203.457C498.464 203.567 496.529 204.176 494.83 205.228C493.132 206.28 491.724 207.741 490.737 209.478C490.063 208.137 489.089 206.193 488.313 204.63H490.859C491.613 204.582 492.329 204.283 492.892 203.78C493.455 203.276 493.833 202.598 493.964 201.855C494.436 201.46 494.811 200.964 495.061 200.402C495.311 199.841 495.43 199.23 495.408 198.615C495.408 194.212 490.482 192.002 487.744 192.002C484.004 191.914 482.92 194.629 481.948 197.058L481.906 197.166C481.301 198.72 476 212.487 476 216.668C475.99 219.222 476.983 221.678 478.766 223.506C479.668 224.41 480.744 225.121 481.929 225.597C483.114 226.072 484.384 226.302 485.66 226.272V226.274ZM484.146 198.05C485.196 195.423 485.778 194.408 487.641 194.408H487.722C489.515 194.408 493.002 195.893 493.002 198.616C493.035 198.891 492.992 199.167 492.879 199.42V199.421C492.727 199.217 492.541 199.04 492.33 198.898C492.149 198.771 491.936 198.699 491.715 198.691H491.077C490.454 197.906 488.54 196.512 487.05 196.774L488.61 198.757H490.838L491.16 199.526C491.559 200.475 491.421 200.948 491.292 201.155C491.238 201.242 491.165 201.315 491.078 201.369C490.992 201.423 490.894 201.457 490.792 201.467H483.239L483.982 202.435C484.307 202.86 484.74 203.19 485.165 203.442C485.167 203.623 485.21 203.801 485.291 203.962L485.624 204.63V204.632C486.33 206.045 487.963 209.318 488.842 211.064C488.812 211.107 488.782 211.152 488.754 211.196L485.275 216.849C485.108 217.12 485.056 217.447 485.13 217.757C485.204 218.068 485.398 218.336 485.67 218.503C485.941 218.67 486.268 218.722 486.579 218.648C486.889 218.575 487.157 218.38 487.324 218.109L490.451 213.026C490.559 213.051 490.667 213.066 490.779 213.067C490.9 213.062 491.02 213.043 491.137 213.01L494.366 218.329C494.531 218.601 494.798 218.797 495.108 218.873C495.418 218.949 495.745 218.898 496.018 218.733C496.29 218.567 496.486 218.3 496.562 217.99C496.638 217.68 496.587 217.353 496.422 217.081L492.858 211.209C492.806 211.125 492.75 211.045 492.689 210.968C493.434 209.519 494.541 208.288 495.902 207.393C497.264 206.498 498.833 205.97 500.458 205.861C502.839 205.922 505.111 206.871 506.831 208.521C507.634 209.205 508.292 210.043 508.767 210.986C509.242 211.929 509.523 212.957 509.595 214.01C509.594 218.918 506.438 223.869 499.39 223.869H485.66C484.703 223.897 483.751 223.73 482.86 223.378C481.97 223.027 481.159 222.499 480.479 221.825C479.141 220.452 478.397 218.608 478.407 216.691C478.407 213.517 482.553 202.15 484.146 198.051V198.05Z" fill="#9747FF"/>
<g filter="url(#filter2_d_110_1114)">
<rect x="369" y="409" width="120" height="80" rx="10" fill="white"/>
</g>
<path d="M418.778 420.286C418.778 419.945 418.631 419.618 418.371 419.377C418.111 419.135 417.757 419 417.389 419C417.021 419 416.667 419.135 416.407 419.377C416.146 419.618 416 419.945 416 420.286V428C416 429.482 416.552 430.919 417.565 432.067C418.577 433.215 419.987 434.004 421.556 434.3V453.714C421.556 454.055 421.702 454.382 421.962 454.623C422.223 454.865 422.576 455 422.944 455C423.313 455 423.666 454.865 423.927 454.623C424.187 454.382 424.333 454.055 424.333 453.714V434.3C425.902 434.004 427.312 433.215 428.324 432.067C429.336 430.919 429.889 429.482 429.889 428V420.286C429.889 419.945 429.743 419.618 429.482 419.377C429.222 419.135 428.868 419 428.5 419C428.132 419 427.778 419.135 427.518 419.377C427.257 419.618 427.111 419.945 427.111 420.286V428C427.112 428.798 426.845 429.576 426.347 430.228C425.85 430.88 425.146 431.373 424.333 431.639V420.286C424.333 419.945 424.187 419.618 423.927 419.377C423.666 419.135 423.313 419 422.944 419C422.576 419 422.223 419.135 421.962 419.377C421.702 419.618 421.556 419.945 421.556 420.286V431.639C420.743 431.373 420.039 430.88 419.542 430.228C419.044 429.576 418.777 428.798 418.778 428V420.286ZM438.222 453.714V437H434.056C433.687 437 433.334 436.865 433.073 436.623C432.813 436.382 432.667 436.055 432.667 435.714V425.429C432.667 423.724 433.572 422.129 434.808 420.983C436.047 419.838 437.769 419 439.611 419C439.979 419 440.333 419.135 440.593 419.377C440.854 419.618 441 419.945 441 420.286V453.714C441 454.055 440.854 454.382 440.593 454.623C440.333 454.865 439.979 455 439.611 455C439.243 455 438.889 454.865 438.629 454.623C438.369 454.382 438.222 454.055 438.222 453.714Z" fill="#9747FF"/>
<path d="M407.45 467.34V477H406.218V467.34H407.45ZM412.07 467.34V468.348H407.338V467.34H412.07ZM413.148 467.34V477H411.916V467.34H413.148ZM421.463 470.182V477H420.385V472.478C420.385 472.329 420.39 472.184 420.399 472.044C420.409 471.895 420.418 471.736 420.427 471.568H420.399C420.343 471.699 420.269 471.839 420.175 471.988C420.091 472.128 420.007 472.254 419.923 472.366L416.451 477H415.471V470.182H416.549V474.704C416.549 474.853 416.545 475.003 416.535 475.152C416.535 475.292 416.526 475.446 416.507 475.614H416.535C416.61 475.474 416.689 475.334 416.773 475.194C416.857 475.054 416.941 474.933 417.025 474.83L420.497 470.182H421.463ZM426.614 470.182V477H425.424V470.182H426.614ZM429.078 470.182V471.162H422.946V470.182H429.078ZM433.785 470.014C434.289 470.014 434.714 470.084 435.059 470.224C435.405 470.355 435.666 470.579 435.843 470.896C436.021 471.213 436.109 471.647 436.109 472.198V477H435.171L434.989 475.516L434.919 475.362V472.198C434.91 471.778 434.812 471.479 434.625 471.302C434.439 471.115 434.075 471.022 433.533 471.022C433.169 471.022 432.717 471.041 432.175 471.078C431.643 471.115 431.116 471.157 430.593 471.204L430.481 470.322C430.799 470.266 431.149 470.215 431.531 470.168C431.914 470.121 432.301 470.084 432.693 470.056C433.085 470.028 433.449 470.014 433.785 470.014ZM435.549 472.8L435.535 473.696L432.287 473.71C431.961 473.719 431.727 473.808 431.587 473.976C431.457 474.135 431.391 474.359 431.391 474.648V475.082C431.391 475.437 431.475 475.698 431.643 475.866C431.821 476.025 432.091 476.104 432.455 476.104C432.717 476.104 433.011 476.057 433.337 475.964C433.673 475.861 434.009 475.707 434.345 475.502C434.681 475.297 434.989 475.035 435.269 474.718V475.6C435.176 475.731 435.031 475.885 434.835 476.062C434.649 476.23 434.42 476.398 434.149 476.566C433.888 476.725 433.594 476.86 433.267 476.972C432.941 477.075 432.591 477.126 432.217 477.126C431.816 477.126 431.461 477.056 431.153 476.916C430.845 476.767 430.607 476.552 430.439 476.272C430.271 475.983 430.187 475.633 430.187 475.222V474.48C430.187 473.948 430.351 473.537 430.677 473.248C431.013 472.949 431.48 472.8 432.077 472.8H435.549ZM439.452 470.182V477H438.276V470.182H439.452ZM443.162 472.926V473.836H439.368V472.926H443.162ZM444.212 470.182V477H443.036V470.182H444.212ZM452.416 470.182V477H451.338V472.478C451.338 472.329 451.343 472.184 451.352 472.044C451.362 471.895 451.371 471.736 451.38 471.568H451.352C451.296 471.699 451.222 471.839 451.128 471.988C451.044 472.128 450.96 472.254 450.876 472.366L447.404 477H446.424V470.182H447.502V474.704C447.502 474.853 447.498 475.003 447.488 475.152C447.488 475.292 447.479 475.446 447.46 475.614H447.488C447.563 475.474 447.642 475.334 447.726 475.194C447.81 475.054 447.894 474.933 447.978 474.83L451.45 470.182H452.416ZM457.441 470.014C458.468 470.014 459.21 470.201 459.667 470.574C460.134 470.947 460.372 471.503 460.381 472.24C460.381 472.847 460.25 473.323 459.989 473.668C459.737 474.004 459.326 474.172 458.757 474.172H454.767V473.248H458.449C458.748 473.248 458.944 473.145 459.037 472.94C459.14 472.725 459.186 472.492 459.177 472.24C459.177 471.801 459.051 471.489 458.799 471.302C458.547 471.115 458.113 471.022 457.497 471.022C457.002 471.022 456.61 471.097 456.321 471.246C456.041 471.386 455.84 471.638 455.719 472.002C455.607 472.357 455.551 472.856 455.551 473.5C455.551 474.228 455.621 474.783 455.761 475.166C455.91 475.549 456.144 475.81 456.461 475.95C456.778 476.09 457.198 476.16 457.721 476.16C458.094 476.16 458.496 476.146 458.925 476.118C459.364 476.081 459.756 476.039 460.101 475.992L460.213 476.79C460.008 476.874 459.746 476.944 459.429 477C459.112 477.056 458.785 477.098 458.449 477.126C458.122 477.154 457.828 477.168 457.567 477.168C456.792 477.168 456.162 477.051 455.677 476.818C455.201 476.575 454.856 476.193 454.641 475.67C454.426 475.138 454.319 474.438 454.319 473.57C454.319 472.674 454.426 471.969 454.641 471.456C454.865 470.933 455.206 470.565 455.663 470.35C456.12 470.126 456.713 470.014 457.441 470.014Z" fill="#40433D"/>
<defs>
<filter id="filter0_d_110_1114" x="218" y="233" width="148" height="108" filterUnits="userSpaceOnUse" color-interpolation-filters="sRGB">
<feFlood flood-opacity="0" result="BackgroundImageFix"/>
<feColorMatrix in="SourceAlpha" type="matrix" values="0 0 0 0 0 0 0 0 0 0 0 0 0 0 0 0 0 0 127 0" result="hardAlpha"/>
<feOffset dx="2" dy="2"/>
<feGaussianBlur stdDeviation="7"/>
<feComposite in2="hardAlpha" operator="out"/>
<feColorMatrix type="matrix" values="0 0 0 0 0 0 0 0 0 0 0 0 0 0 0 0 0 0 0.1 0"/>
<feBlend mode="normal" in2="BackgroundImageFix" result="effect1_dropShadow_110_1114"/>
<feBlend mode="normal" in="SourceGraphic" in2="effect1_dropShadow_110_1114" result="shape"/>
</filter>
<filter id="filter1_d_110_1114" x="422" y="171" width="148" height="108" filterUnits="userSpaceOnUse" color-interpolation-filters="sRGB">
<feFlood flood-opacity="0" result="BackgroundImageFix"/>
<feColorMatrix in="SourceAlpha" type="matrix" values="0 0 0 0 0 0 0 0 0 0 0 0 0 0 0 0 0 0 127 0" result="hardAlpha"/>
<feOffset dx="2" dy="2"/>
<feGaussianBlur stdDeviation="7"/>
<feComposite in2="hardAlpha" operator="out"/>
<feColorMatrix type="matrix" values="0 0 0 0 0 0 0 0 0 0 0 0 0 0 0 0 0 0 0.1 0"/>
<feBlend mode="normal" in2="BackgroundImageFix" result="effect1_dropShadow_110_1114"/>
<feBlend mode="normal" in="SourceGraphic" in2="effect1_dropShadow_110_1114" result="shape"/>
</filter>
<filter id="filter2_d_110_1114" x="357" y="397" width="148" height="108" filterUnits="userSpaceOnUse" color-interpolation-filters="sRGB">
<feFlood flood-opacity="0" result="BackgroundImageFix"/>
<feColorMatrix in="SourceAlpha" type="matrix" values="0 0 0 0 0 0 0 0 0 0 0 0 0 0 0 0 0 0 127 0" result="hardAlpha"/>
<feOffset dx="2" dy="2"/>
<feGaussianBlur stdDeviation="7"/>
<feComposite in2="hardAlpha" operator="out"/>
<feColorMatrix type="matrix" values="0 0 0 0 0 0 0 0 0 0 0 0 0 0 0 0 0 0 0.1 0"/>
<feBlend mode="normal" in2="BackgroundImageFix" result="effect1_dropShadow_110_1114"/>
<feBlend mode="normal" in="SourceGraphic" in2="effect1_dropShadow_110_1114" result="shape"/>
</filter>
<clipPath id="clip0_110_1114">
<rect width="158.323" height="163.977" fill="white" transform="translate(469.314 71.2454)"/>
</clipPath>
<clipPath id="clip1_110_1114">
<rect width="580.358" height="379.921" fill="white" transform="translate(71.9756 230.753)"/>
</clipPath>
</defs>
</svg>
