<svg width="1920" height="1267" viewBox="0 0 1920 1267" fill="none" xmlns="http://www.w3.org/2000/svg">
<path d="M1920 1007.49C1920 1041.57 1895.17 1075.32 1846.92 1106.8C1798.68 1138.29 1727.97 1166.89 1638.82 1190.99C1549.68 1215.09 1443.85 1234.2 1327.38 1247.25C1210.9 1260.29 1086.07 1267 960 1267C833.931 1267 709.096 1260.29 592.624 1247.25C476.151 1234.2 370.322 1215.09 281.177 1190.99C192.033 1166.89 121.32 1138.29 73.0756 1106.8C24.8311 1075.32 -1.10213e-05 1041.57 0 1007.49L1920 1007.49Z" fill="#B1A9FF"/>
<path d="M0 888H1920V1007.67H0V888Z" fill="#B1A9FF"/>
<rect width="1920" height="888" fill="#B1A9FF"/>
</svg>
