<svg width="97" height="65" viewBox="0 0 97 65" fill="none" xmlns="http://www.w3.org/2000/svg">
<path d="M20.4972 9.90909H26.6477V28.8011C26.6477 30.9223 26.1411 32.7784 25.1278 34.3693C24.1241 35.9602 22.7178 37.2008 20.9091 38.0909C19.1004 38.9716 16.9934 39.4119 14.5881 39.4119C12.1733 39.4119 10.0616 38.9716 8.25284 38.0909C6.44413 37.2008 5.03788 35.9602 4.03409 34.3693C3.0303 32.7784 2.52841 30.9223 2.52841 28.8011V9.90909H8.67898V28.2756C8.67898 29.3835 8.92045 30.3684 9.40341 31.2301C9.89583 32.0919 10.5871 32.7689 11.4773 33.2614C12.3674 33.7538 13.4044 34 14.5881 34C15.7813 34 16.8182 33.7538 17.6989 33.2614C18.589 32.7689 19.2756 32.0919 19.7585 31.2301C20.2509 30.3684 20.4972 29.3835 20.4972 28.2756V9.90909ZM31.7081 39V9.90909H43.1854C45.3918 9.90909 47.2715 10.3305 48.8246 11.1733C50.3776 12.0066 51.5613 13.1667 52.3757 14.6534C53.1996 16.1307 53.6115 17.8352 53.6115 19.767C53.6115 21.6989 53.1948 23.4034 52.3615 24.8807C51.5282 26.358 50.3208 27.5085 48.7393 28.3324C47.1674 29.1562 45.264 29.5682 43.0291 29.5682H35.7138V24.6392H42.0348C43.2185 24.6392 44.1939 24.4356 44.9609 24.0284C45.7375 23.6117 46.3151 23.0388 46.6939 22.3097C47.0821 21.571 47.2763 20.7235 47.2763 19.767C47.2763 18.8011 47.0821 17.9583 46.6939 17.2386C46.3151 16.5095 45.7375 15.946 44.9609 15.5483C44.1844 15.1411 43.1996 14.9375 42.0064 14.9375H37.8587V39H31.7081Z" fill="#6253FF"/>
<path d="M48.5426 56H41.9517L51.9943 26.9091H59.9205L69.9489 56H63.358L56.071 33.5568H55.8438L48.5426 56ZM48.1307 44.5653H63.6989V49.3665H48.1307V44.5653ZM73.4503 56V26.9091H84.9276C87.134 26.9091 89.0137 27.3305 90.5668 28.1733C92.1198 29.0066 93.3035 30.1667 94.1179 31.6534C94.9418 33.1307 95.3537 34.8352 95.3537 36.767C95.3537 38.6989 94.937 40.4034 94.1037 41.8807C93.2704 43.358 92.063 44.5085 90.4815 45.3324C88.9096 46.1562 87.0062 46.5682 84.7713 46.5682H77.456V41.6392H83.777C84.9607 41.6392 85.9361 41.4356 86.7031 41.0284C87.4796 40.6117 88.0573 40.0388 88.4361 39.3097C88.8243 38.571 89.0185 37.7235 89.0185 36.767C89.0185 35.8011 88.8243 34.9583 88.4361 34.2386C88.0573 33.5095 87.4796 32.946 86.7031 32.5483C85.9266 32.1411 84.9418 31.9375 83.7486 31.9375H79.6009V56H73.4503Z" fill="white"/>
<path d="M48.5426 56V56.4H48.8331L48.923 56.1237L48.5426 56ZM41.9517 56L41.5736 55.8695L41.3905 56.4H41.9517V56ZM51.9943 26.9091V26.5091H51.7092L51.6162 26.7786L51.9943 26.9091ZM59.9205 26.9091L60.2986 26.7787L60.2057 26.5091H59.9205V26.9091ZM69.9489 56V56.4H70.5099L70.327 55.8696L69.9489 56ZM63.358 56L62.9775 56.1235L63.0673 56.4H63.358V56ZM56.071 33.5568L56.4515 33.4333L56.3617 33.1568H56.071V33.5568ZM55.8438 33.5568V33.1568H55.5532L55.4634 33.4331L55.8438 33.5568ZM48.1307 44.5653V44.1653H47.7307V44.5653H48.1307ZM63.6989 44.5653H64.0989V44.1653H63.6989V44.5653ZM63.6989 49.3665V49.7665H64.0989V49.3665H63.6989ZM48.1307 49.3665H47.7307V49.7665H48.1307V49.3665ZM48.5426 55.6H41.9517V56.4H48.5426V55.6ZM42.3298 56.1305L52.3724 27.0396L51.6162 26.7786L41.5736 55.8695L42.3298 56.1305ZM51.9943 27.3091H59.9205V26.5091H51.9943V27.3091ZM59.5423 27.0395L69.5707 56.1304L70.327 55.8696L60.2986 26.7787L59.5423 27.0395ZM69.9489 55.6H63.358V56.4H69.9489V55.6ZM63.7384 55.8765L56.4515 33.4333L55.6906 33.6803L62.9775 56.1235L63.7384 55.8765ZM56.071 33.1568H55.8438V33.9568H56.071V33.1568ZM55.4634 33.4331L48.1622 55.8763L48.923 56.1237L56.2241 33.6806L55.4634 33.4331ZM48.1307 44.9653H63.6989V44.1653H48.1307V44.9653ZM63.2989 44.5653V49.3665H64.0989V44.5653H63.2989ZM63.6989 48.9665H48.1307V49.7665H63.6989V48.9665ZM48.5307 49.3665V44.5653H47.7307V49.3665H48.5307ZM73.4503 56H73.0503V56.4H73.4503V56ZM73.4503 26.9091V26.5091H73.0503V26.9091H73.4503ZM90.5668 28.1733L90.376 28.5249L90.3776 28.5258L90.5668 28.1733ZM94.1179 31.6534L93.7671 31.8456L93.7686 31.8482L94.1179 31.6534ZM90.4815 45.3324L90.2967 44.9776L90.2959 44.9781L90.4815 45.3324ZM77.456 46.5682H77.056V46.9682H77.456V46.5682ZM77.456 41.6392V41.2392H77.056V41.6392H77.456ZM86.7031 41.0284L86.8907 41.3817L86.8923 41.3809L86.7031 41.0284ZM88.4361 39.3097L88.082 39.1235L88.0811 39.1253L88.4361 39.3097ZM88.4361 34.2386L88.0811 34.4231L88.084 34.4286L88.4361 34.2386ZM86.7031 32.5483L86.5174 32.9026L86.5208 32.9043L86.7031 32.5483ZM79.6009 31.9375V31.5375H79.2009V31.9375H79.6009ZM79.6009 56V56.4H80.0009V56H79.6009ZM73.8503 56V26.9091H73.0503V56H73.8503ZM73.4503 27.3091H84.9276V26.5091H73.4503V27.3091ZM84.9276 27.3091C87.0837 27.3091 88.8943 27.7208 90.376 28.5249L90.7576 27.8217C89.1331 26.9402 87.1843 26.5091 84.9276 26.5091V27.3091ZM90.3776 28.5258C91.8652 29.324 92.9914 30.4296 93.7671 31.8456L94.4687 31.4612C93.6156 29.9037 92.3743 28.6893 90.7559 27.8208L90.3776 28.5258ZM93.7686 31.8482C94.5547 33.2579 94.9537 34.8936 94.9537 36.767H95.7537C95.7537 34.7768 95.3288 33.0034 94.4672 31.4586L93.7686 31.8482ZM94.9537 36.767C94.9537 38.6397 94.5503 40.2748 93.7553 41.6842L94.4521 42.0772C95.3237 40.532 95.7537 38.758 95.7537 36.767H94.9537ZM93.7553 41.6842C92.962 43.0904 91.8132 44.1876 90.2967 44.9776L90.6663 45.6871C92.3128 44.8294 93.5787 43.6255 94.4521 42.0772L93.7553 41.6842ZM90.2959 44.9781C88.7941 45.7651 86.9579 46.1682 84.7713 46.1682V46.9682C87.0544 46.9682 89.025 46.5474 90.6672 45.6867L90.2959 44.9781ZM84.7713 46.1682H77.456V46.9682H84.7713V46.1682ZM77.856 46.5682V41.6392H77.056V46.5682H77.856ZM77.456 42.0392H83.777V41.2392H77.456V42.0392ZM83.777 42.0392C85.0035 42.0392 86.0487 41.8287 86.8907 41.3817L86.5156 40.6751C85.8234 41.0425 84.9179 41.2392 83.777 41.2392V42.0392ZM86.8923 41.3809C87.7343 40.929 88.3724 40.2999 88.791 39.4941L88.0811 39.1253C87.7422 39.7777 87.225 40.2944 86.514 40.6759L86.8923 41.3809ZM88.7901 39.4958C89.2127 38.6918 89.4185 37.7788 89.4185 36.767H88.6185C88.6185 37.6682 88.436 38.4502 88.082 39.1235L88.7901 39.4958ZM89.4185 36.767C89.4185 35.7468 89.2131 34.8365 88.7881 34.0487L88.084 34.4286C88.4356 35.0802 88.6185 35.8554 88.6185 36.767H89.4185ZM88.791 34.0542C88.3715 33.2466 87.7311 32.6254 86.8855 32.1923L86.5208 32.9043C87.2282 33.2666 87.7431 33.7723 88.0811 34.423L88.791 34.0542ZM86.8889 32.194C86.0382 31.7479 84.9842 31.5375 83.7486 31.5375V32.3375C84.8993 32.3375 85.8151 32.5343 86.5174 32.9025L86.8889 32.194ZM83.7486 31.5375H79.6009V32.3375H83.7486V31.5375ZM79.2009 31.9375V56H80.0009V31.9375H79.2009ZM79.6009 55.6H73.4503V56.4H79.6009V55.6Z" fill="#6253FF"/>
<path d="M70.9573 31.9999C70.9573 45.4225 59.4391 56.4856 45.0001 56.4856C30.5611 56.4856 19.043 45.4225 19.043 31.9999C19.043 18.5773 30.5611 7.51416 45.0001 7.51416C59.4391 7.51416 70.9573 18.5773 70.9573 31.9999Z" stroke="url(#paint0_linear_101_1085)" stroke-width="4"/>
<defs>
<linearGradient id="paint0_linear_101_1085" x1="36.9073" y1="17.6534" x2="60.818" y2="40.4606" gradientUnits="userSpaceOnUse">
<stop stop-color="#584BE1" stop-opacity="0"/>
<stop offset="0.518359" stop-color="#6253FF"/>
<stop offset="1" stop-color="#584BE1" stop-opacity="0"/>
</linearGradient>
</defs>
</svg>
